M48
;Layer_Color=9474304
;FILE_FORMAT=2:4
INCH,LZ
;TYPE=PLATED
T1F00S00C0.0280
T2F00S00C0.0394
T3F00S00C0.0402
T4F00S00C0.0433
T5F00S00C0.0512
T6F00S00C0.1260
%
T01
X0182Y00935
X024519Y0058
X0269Y01085
X028Y01115
X02605Y01465
X0373Y0133
X03695Y01785
X0322Y02085
X0289Y0188
X02465Y01875
X02175Y01855
X02235Y01745
X02285Y01695
X0232Y01625
X02515Y0222
X02565Y0229
X02465Y02415
X02485Y0264
X0256Y026
X0236Y0261
X021625Y02535
X02825Y0266
X02905Y0286
T02
X033282Y01775
X034266
X03525
X017384Y019
X0164
X015416
T03
X02015Y00995
Y01095
Y01195
Y01295
Y01395
Y01495
X03015
Y01395
Y01295
Y01195
Y01095
Y00995
Y01595
Y01695
Y01795
Y01895
Y01995
Y02095
Y02195
Y02295
Y02395
Y02495
Y02595
Y02695
Y02795
X02015
Y02695
Y02595
Y02495
Y02395
Y02295
Y02195
Y02095
Y01995
Y01895
Y01795
Y01695
Y01595
T04
X01565Y01035
X01665
X01765
X017668Y0117
X016668
X015668
X033318Y01195
X034318
X035318
T05
X016482Y014694
X034318Y014402
Y01578
Y020837
Y022215
Y024511
Y025889
X016332Y025631
Y024254
X016482Y016072
T06
X038Y0192
X0123
M30
