G04*
G04 #@! TF.GenerationSoftware,Altium Limited,Altium Designer,22.0.2 (36)*
G04*
G04 Layer_Color=65535*
%FSLAX23Y23*%
%MOIN*%
G70*
G04*
G04 #@! TF.SameCoordinates,F56BB060-458F-4204-93A6-019121B336C4*
G04*
G04*
G04 #@! TF.FilePolarity,Positive*
G04*
G01*
G75*
%ADD10C,0.010*%
%ADD11C,0.024*%
%ADD12C,0.012*%
%ADD13C,0.008*%
%ADD14C,0.005*%
%ADD15C,0.008*%
%ADD16C,0.012*%
%ADD17C,0.010*%
D10*
X3530Y1671D02*
G03*
X3530Y1671I-5J0D01*
G01*
X2400Y2575D02*
G03*
X2400Y2575I-5J0D01*
G01*
X1743Y1796D02*
G03*
X1743Y1796I-5J0D01*
G01*
X2395Y1956D02*
G03*
X2395Y1956I-5J0D01*
G01*
D11*
X2493Y2516D02*
G03*
X2493Y2516I-12J0D01*
G01*
X2488Y1896D02*
G03*
X2488Y1896I-12J0D01*
G01*
D12*
X2418Y730D02*
G03*
X2418Y730I-4J0D01*
G01*
D13*
X3803Y1679D02*
Y1741D01*
X3766Y1743D02*
X3814D01*
X3766Y1677D02*
X3814D01*
X3768Y1385D02*
Y1500D01*
X3692Y1385D02*
Y1500D01*
X3655Y1696D02*
Y1854D01*
X3198D02*
X3655D01*
X3198Y1696D02*
Y1854D01*
Y1696D02*
X3655D01*
X3274Y1371D02*
Y1647D01*
X3566Y1371D02*
Y1647D01*
X3274D02*
X3566D01*
X3520Y1356D02*
X3546D01*
X3543Y1371D02*
X3546Y1356D01*
X3520D02*
X3523Y1371D01*
X3543D02*
X3566D01*
X3317D02*
X3320Y1356D01*
X3294D02*
X3297Y1371D01*
X3294Y1356D02*
X3320D01*
X3274Y1371D02*
X3297D01*
X3317D02*
X3523D01*
X3274Y2015D02*
Y2290D01*
X3566Y2015D02*
Y2290D01*
X3274D02*
X3566D01*
X3520Y1999D02*
X3546D01*
X3543Y2015D02*
X3546Y1999D01*
X3520D02*
X3523Y2015D01*
X3543D02*
X3566D01*
X3317D02*
X3320Y1999D01*
X3294D02*
X3297Y2015D01*
X3294Y1999D02*
X3320D01*
X3274Y2015D02*
X3297D01*
X3317D02*
X3523D01*
X3276Y1142D02*
Y1248D01*
Y1142D02*
X3588D01*
Y1248D01*
X3276D02*
X3588D01*
X3274Y2382D02*
Y2658D01*
X3566Y2382D02*
Y2658D01*
X3274D02*
X3566D01*
X3520Y2366D02*
X3546D01*
X3543Y2382D02*
X3546Y2366D01*
X3520D02*
X3523Y2382D01*
X3543D02*
X3566D01*
X3317D02*
X3320Y2366D01*
X3294D02*
X3297Y2382D01*
X3294Y2366D02*
X3320D01*
X3274Y2382D02*
X3297D01*
X3317D02*
X3523D01*
X2442Y2355D02*
Y2556D01*
X2588Y2355D02*
Y2556D01*
X2442D02*
X2588D01*
X2442Y2355D02*
X2588D01*
X1868Y1821D02*
Y1979D01*
X1412D02*
X1868D01*
X1412Y1821D02*
Y1979D01*
Y1821D02*
X1868D01*
X1791Y2356D02*
Y2632D01*
X1499Y2356D02*
Y2632D01*
Y2356D02*
X1791D01*
X1519Y2648D02*
X1545D01*
X1519D02*
X1522Y2632D01*
X1542D02*
X1545Y2648D01*
X1499Y2632D02*
X1522D01*
X1745Y2648D02*
X1748Y2632D01*
X1768D02*
X1771Y2648D01*
X1745D02*
X1771D01*
X1768Y2632D02*
X1791D01*
X1542D02*
X1748D01*
X1806Y1401D02*
Y1676D01*
X1514Y1401D02*
Y1676D01*
Y1401D02*
X1806D01*
X1534Y1692D02*
X1560D01*
X1534D02*
X1537Y1676D01*
X1557D02*
X1560Y1692D01*
X1514Y1676D02*
X1537D01*
X1760Y1692D02*
X1763Y1676D01*
X1783D02*
X1786Y1692D01*
X1760D02*
X1786D01*
X1783Y1676D02*
X1806D01*
X1557D02*
X1763D01*
X2437Y1735D02*
Y1936D01*
X2583Y1735D02*
Y1936D01*
X2437D02*
X2583D01*
X2437Y1735D02*
X2583D01*
D14*
X2440Y535D02*
X2582D01*
X2629Y613D02*
Y702D01*
X2598D02*
X2629D01*
X2393Y613D02*
Y702D01*
X2424D01*
D15*
X1692Y1252D02*
Y1265D01*
Y1258D01*
X1652D01*
X1659Y1252D01*
Y1285D02*
X1652Y1292D01*
Y1305D01*
X1659Y1312D01*
X1665D01*
X1672Y1305D01*
Y1298D01*
Y1305D01*
X1679Y1312D01*
X1685D01*
X1692Y1305D01*
Y1292D01*
X1685Y1285D01*
X3419Y1028D02*
X3412Y1022D01*
Y1008D01*
X3419Y1002D01*
X3445D01*
X3452Y1008D01*
Y1022D01*
X3445Y1028D01*
X3432D01*
Y1015D01*
X3452Y1042D02*
X3412D01*
X3452Y1068D01*
X3412D01*
Y1082D02*
X3452D01*
Y1102D01*
X3445Y1108D01*
X3419D01*
X3412Y1102D01*
Y1082D01*
X3626Y1606D02*
Y1554D01*
X1759Y1278D02*
X1752Y1272D01*
Y1258D01*
X1759Y1252D01*
X1785D01*
X1792Y1258D01*
Y1272D01*
X1785Y1278D01*
X1772D01*
Y1265D01*
X1792Y1292D02*
X1752D01*
X1792Y1318D01*
X1752D01*
Y1332D02*
X1792D01*
Y1352D01*
X1785Y1358D01*
X1759D01*
X1752Y1352D01*
Y1332D01*
X3656Y2074D02*
X3604D01*
X3630Y2101D02*
Y2048D01*
X3656Y2449D02*
X3604D01*
X3630Y2476D02*
Y2423D01*
X3626Y2621D02*
Y2569D01*
X1451Y1614D02*
X1399D01*
X1425Y1641D02*
Y1588D01*
X1441Y2456D02*
Y2404D01*
X1687Y952D02*
X1647D01*
X1667Y932D01*
Y958D01*
X1554Y1252D02*
X1547Y1258D01*
Y1272D01*
X1554Y1278D01*
X1560D01*
X1567Y1272D01*
Y1265D01*
Y1272D01*
X1574Y1278D01*
X1580D01*
X1587Y1272D01*
Y1258D01*
X1580Y1252D01*
X1547Y1292D02*
X1574D01*
X1587Y1305D01*
X1574Y1318D01*
X1547D01*
X1554Y1332D02*
X1547Y1338D01*
Y1352D01*
X1554Y1358D01*
X1560D01*
X1567Y1352D01*
Y1345D01*
Y1352D01*
X1574Y1358D01*
X1580D01*
X1587Y1352D01*
Y1338D01*
X1580Y1332D01*
X1542Y918D02*
X1549Y905D01*
X1562Y892D01*
X1575D01*
X1582Y898D01*
Y912D01*
X1575Y918D01*
X1569D01*
X1562Y912D01*
Y892D01*
X1542Y932D02*
X1569D01*
X1582Y945D01*
X1569Y958D01*
X1542D01*
X3519Y1002D02*
X3512Y1008D01*
Y1022D01*
X3519Y1028D01*
X3525D01*
X3532Y1022D01*
Y1015D01*
Y1022D01*
X3539Y1028D01*
X3545D01*
X3552Y1022D01*
Y1008D01*
X3545Y1002D01*
X3512Y1042D02*
X3539D01*
X3552Y1055D01*
X3539Y1068D01*
X3512D01*
X3519Y1082D02*
X3512Y1088D01*
Y1102D01*
X3519Y1108D01*
X3525D01*
X3532Y1102D01*
Y1095D01*
Y1102D01*
X3539Y1108D01*
X3545D01*
X3552Y1102D01*
Y1088D01*
X3545Y1082D01*
X2430Y833D02*
X2450D01*
X2440D01*
Y773D01*
X2430D01*
X2450D01*
X2520D02*
X2480D01*
X2520Y813D01*
Y823D01*
X2510Y833D01*
X2490D01*
X2480Y823D01*
X2580D02*
X2570Y833D01*
X2550D01*
X2540Y823D01*
Y783D01*
X2550Y773D01*
X2570D01*
X2580Y783D01*
X3626Y2261D02*
Y2209D01*
X1466Y2559D02*
X1414D01*
X1440Y2586D02*
Y2533D01*
X3656Y1439D02*
X3604D01*
X3630Y1466D02*
Y1413D01*
X3172Y1978D02*
X3222D01*
Y2003D01*
X3214Y2011D01*
X3205D01*
X3197Y2003D01*
Y1978D01*
Y2003D01*
X3189Y2011D01*
X3180D01*
X3172Y2003D01*
Y1978D01*
X3222Y2028D02*
X3189D01*
X3172Y2044D01*
X3189Y2061D01*
X3222D01*
X3197D01*
Y2028D01*
X3172Y2078D02*
Y2111D01*
Y2094D01*
X3222D01*
X3172Y2161D02*
Y2128D01*
X3222D01*
Y2161D01*
X3197Y2128D02*
Y2144D01*
X3222Y2177D02*
X3172D01*
Y2202D01*
X3180Y2211D01*
X3197D01*
X3205Y2202D01*
Y2177D01*
Y2194D02*
X3222Y2211D01*
X3172Y2227D02*
Y2244D01*
Y2236D01*
X3222D01*
Y2227D01*
Y2244D01*
Y2269D02*
X3189D01*
X3172Y2286D01*
X3189Y2302D01*
X3222D01*
X3197D01*
Y2269D01*
X3307Y962D02*
X3347D01*
Y982D01*
X3340Y988D01*
X3314D01*
X3307Y982D01*
Y962D01*
X3347Y1002D02*
X3320D01*
X3307Y1015D01*
X3320Y1028D01*
X3347D01*
X3327D01*
Y1002D01*
X3307Y1042D02*
Y1068D01*
Y1055D01*
X3347D01*
Y1082D02*
X3320D01*
X3307Y1095D01*
X3320Y1108D01*
X3347D01*
X3327D01*
Y1082D01*
X1441Y1496D02*
Y1444D01*
X1754Y878D02*
X1747Y872D01*
Y858D01*
X1754Y852D01*
X1780D01*
X1787Y858D01*
Y872D01*
X1780Y878D01*
X1767D01*
Y865D01*
X1787Y892D02*
X1747D01*
X1787Y918D01*
X1747D01*
Y932D02*
X1787D01*
Y952D01*
X1780Y958D01*
X1754D01*
X1747Y952D01*
Y932D01*
D16*
X3243Y2449D02*
X3164D01*
X3191Y2476D01*
X3164Y2502D01*
X3243D01*
Y2581D02*
Y2528D01*
X3191Y2581D01*
X3177D01*
X3164Y2567D01*
Y2541D01*
X3177Y2528D01*
X3243Y1434D02*
X3164D01*
X3191Y1461D01*
X3164Y1487D01*
X3243D01*
Y1552D02*
X3164D01*
X3204Y1513D01*
Y1566D01*
X1837Y1606D02*
X1916D01*
X1889Y1579D01*
X1916Y1553D01*
X1837D01*
X1903Y1527D02*
X1916Y1514D01*
Y1488D01*
X1903Y1474D01*
X1889D01*
X1876Y1488D01*
Y1501D01*
Y1488D01*
X1863Y1474D01*
X1850D01*
X1837Y1488D01*
Y1514D01*
X1850Y1527D01*
X1440Y2007D02*
Y2067D01*
X1460Y2047D01*
X1480Y2067D01*
Y2007D01*
X1530Y2067D02*
X1510D01*
X1500Y2057D01*
Y2017D01*
X1510Y2007D01*
X1530D01*
X1540Y2017D01*
Y2057D01*
X1530Y2067D01*
X1560D02*
X1600D01*
X1580D01*
Y2007D01*
X1650Y2067D02*
X1630D01*
X1620Y2057D01*
Y2017D01*
X1630Y2007D01*
X1650D01*
X1660Y2017D01*
Y2057D01*
X1650Y2067D01*
X1680Y2007D02*
Y2067D01*
X1710D01*
X1720Y2057D01*
Y2037D01*
X1710Y2027D01*
X1680D01*
X1700D02*
X1720Y2007D01*
X1780Y2067D02*
X1740D01*
Y2007D01*
X1780D01*
X1740Y2037D02*
X1760D01*
X1840Y2057D02*
X1830Y2067D01*
X1810D01*
X1800Y2057D01*
Y2047D01*
X1810Y2037D01*
X1830D01*
X1840Y2027D01*
Y2017D01*
X1830Y2007D01*
X1810D01*
X1800Y2017D01*
X1827Y2552D02*
X1906D01*
X1879Y2526D01*
X1906Y2500D01*
X1827D01*
Y2474D02*
Y2448D01*
Y2461D01*
X1906D01*
X1893Y2474D01*
X2300Y2971D02*
Y3023D01*
X2326Y3050D01*
X2352Y3023D01*
Y2971D01*
Y3010D01*
X2300D01*
X2378Y2971D02*
Y3023D01*
X2418D01*
X2431Y3010D01*
Y2971D01*
X2470Y3037D02*
Y3023D01*
X2457D01*
X2483D01*
X2470D01*
Y2984D01*
X2483Y2971D01*
X2562D02*
X2536D01*
X2523Y2984D01*
Y3010D01*
X2536Y3023D01*
X2562D01*
X2575Y3010D01*
Y2997D01*
X2523D01*
X2601Y2971D02*
Y3023D01*
X2641D01*
X2654Y3010D01*
Y2971D01*
X2693Y3023D02*
X2719D01*
X2732Y3010D01*
Y2971D01*
X2693D01*
X2680Y2984D01*
X2693Y2997D01*
X2732D01*
D17*
X3770Y1650D02*
X3750D01*
X3740Y1640D01*
Y1600D01*
X3750Y1590D01*
X3770D01*
X3780Y1600D01*
Y1640D01*
X3770Y1650D01*
X3800Y1590D02*
Y1650D01*
X3840Y1590D01*
Y1650D01*
X3312Y1945D02*
X3292D01*
X3282Y1935D01*
Y1895D01*
X3292Y1885D01*
X3312D01*
X3322Y1895D01*
Y1935D01*
X3312Y1945D01*
X3342Y1885D02*
Y1945D01*
X3382Y1885D01*
Y1945D01*
X3402Y1885D02*
X3442Y1925D01*
X3492Y1945D02*
X3472D01*
X3462Y1935D01*
Y1895D01*
X3472Y1885D01*
X3492D01*
X3502Y1895D01*
Y1935D01*
X3492Y1945D01*
X3562D02*
X3522D01*
Y1915D01*
X3542D01*
X3522D01*
Y1885D01*
X3622Y1945D02*
X3582D01*
Y1915D01*
X3602D01*
X3582D01*
Y1885D01*
X1505Y2155D02*
X1485D01*
X1475Y2145D01*
Y2105D01*
X1485Y2095D01*
X1505D01*
X1515Y2105D01*
Y2145D01*
X1505Y2155D01*
X1535Y2095D02*
Y2155D01*
X1575Y2095D01*
Y2155D01*
X1595Y2095D02*
X1635Y2135D01*
X1685Y2155D02*
X1665D01*
X1655Y2145D01*
Y2105D01*
X1665Y2095D01*
X1685D01*
X1695Y2105D01*
Y2145D01*
X1685Y2155D01*
X1755D02*
X1715D01*
Y2125D01*
X1735D01*
X1715D01*
Y2095D01*
X1815Y2155D02*
X1775D01*
Y2125D01*
X1795D01*
X1775D01*
Y2095D01*
M02*
