G04*
G04 #@! TF.GenerationSoftware,Altium Limited,Altium Designer,22.0.2 (36)*
G04*
G04 Layer_Physical_Order=1*
G04 Layer_Color=255*
%FSLAX23Y23*%
%MOIN*%
G70*
G04*
G04 #@! TF.SameCoordinates,F56BB060-458F-4204-93A6-019121B336C4*
G04*
G04*
G04 #@! TF.FilePolarity,Positive*
G04*
G01*
G75*
%ADD18R,0.059X0.059*%
%ADD19R,0.044X0.049*%
G04:AMPARAMS|DCode=20|XSize=18mil|YSize=63mil|CornerRadius=2mil|HoleSize=0mil|Usage=FLASHONLY|Rotation=90.000|XOffset=0mil|YOffset=0mil|HoleType=Round|Shape=RoundedRectangle|*
%AMROUNDEDRECTD20*
21,1,0.018,0.059,0,0,90.0*
21,1,0.014,0.063,0,0,90.0*
1,1,0.004,0.030,0.007*
1,1,0.004,0.030,-0.007*
1,1,0.004,-0.030,-0.007*
1,1,0.004,-0.030,0.007*
%
%ADD20ROUNDEDRECTD20*%
%ADD21R,0.055X0.061*%
%ADD22R,0.028X0.120*%
%ADD23R,0.260X0.257*%
%ADD24R,0.061X0.059*%
%ADD25R,0.061X0.061*%
%ADD26R,0.024X0.061*%
%ADD27R,0.047X0.071*%
%ADD44C,0.015*%
%ADD45C,0.030*%
%ADD46C,0.050*%
%ADD47C,0.059*%
%ADD48C,0.077*%
%ADD49R,0.077X0.077*%
G04:AMPARAMS|DCode=50|XSize=67mil|YSize=98mil|CornerRadius=17mil|HoleSize=0mil|Usage=FLASHONLY|Rotation=180.000|XOffset=0mil|YOffset=0mil|HoleType=Round|Shape=RoundedRectangle|*
%AMROUNDEDRECTD50*
21,1,0.067,0.065,0,0,180.0*
21,1,0.033,0.098,0,0,180.0*
1,1,0.033,-0.017,0.032*
1,1,0.033,0.017,0.032*
1,1,0.033,0.017,-0.032*
1,1,0.033,-0.017,-0.032*
%
%ADD50ROUNDEDRECTD50*%
%ADD51R,0.063X0.063*%
%ADD52C,0.063*%
%ADD53C,0.157*%
%ADD54C,0.075*%
%ADD55C,0.050*%
G36*
X2624Y3303D02*
X2694Y3296D01*
X2763Y3286D01*
X2832Y3272D01*
X2899Y3255D01*
X2966Y3235D01*
X3032Y3211D01*
X3097Y3184D01*
X3160Y3154D01*
X3222Y3121D01*
X3282Y3086D01*
X3340Y3047D01*
X3396Y3005D01*
X3450Y2961D01*
X3502Y2914D01*
X3551Y2864D01*
X3598Y2812D01*
X3642Y2758D01*
X3684Y2702D01*
X3723Y2644D01*
X3759Y2584D01*
X3792Y2523D01*
X3822Y2459D01*
X3848Y2395D01*
X3872Y2329D01*
X3892Y2262D01*
X3909Y2194D01*
X3923Y2126D01*
X3933Y2057D01*
X3940Y1987D01*
X3943Y1917D01*
Y1882D01*
Y1847D01*
X3940Y1777D01*
X3933Y1708D01*
X3923Y1639D01*
X3909Y1570D01*
X3892Y1502D01*
X3872Y1435D01*
X3848Y1370D01*
X3822Y1305D01*
X3792Y1242D01*
X3759Y1180D01*
X3723Y1120D01*
X3684Y1062D01*
X3642Y1006D01*
X3598Y952D01*
X3551Y900D01*
X3502Y851D01*
X3450Y804D01*
X3396Y759D01*
X3340Y718D01*
X3282Y679D01*
X3222Y643D01*
X3160Y610D01*
X3097Y580D01*
X3032Y553D01*
X2966Y530D01*
X2899Y509D01*
X2832Y492D01*
X2763Y479D01*
X2694Y469D01*
X2624Y462D01*
X2554Y458D01*
X2485D01*
X2415Y462D01*
X2345Y469D01*
X2276Y479D01*
X2207Y492D01*
X2140Y509D01*
X2073Y530D01*
X2007Y553D01*
X1942Y580D01*
X1879Y610D01*
X1817Y643D01*
X1757Y679D01*
X1699Y718D01*
X1643Y759D01*
X1589Y804D01*
X1537Y851D01*
X1488Y900D01*
X1441Y952D01*
X1397Y1006D01*
X1355Y1062D01*
X1316Y1120D01*
X1280Y1180D01*
X1247Y1242D01*
X1217Y1305D01*
X1191Y1370D01*
X1167Y1435D01*
X1147Y1502D01*
X1130Y1570D01*
X1116Y1639D01*
X1106Y1708D01*
X1099Y1777D01*
X1096Y1847D01*
Y1882D01*
Y1917D01*
X1099Y1987D01*
X1106Y2057D01*
X1116Y2126D01*
X1130Y2194D01*
X1147Y2262D01*
X1167Y2329D01*
X1191Y2395D01*
X1217Y2459D01*
X1247Y2523D01*
X1280Y2584D01*
X1316Y2644D01*
X1355Y2702D01*
X1397Y2758D01*
X1441Y2812D01*
X1488Y2864D01*
X1537Y2914D01*
X1589Y2961D01*
X1643Y3005D01*
X1699Y3047D01*
X1757Y3086D01*
X1817Y3121D01*
X1879Y3154D01*
X1942Y3184D01*
X2007Y3211D01*
X2073Y3235D01*
X2140Y3255D01*
X2207Y3272D01*
X2276Y3286D01*
X2345Y3296D01*
X2415Y3303D01*
X2485Y3306D01*
X2554D01*
X2624Y3303D01*
D02*
G37*
%LPC*%
G36*
X2021Y2839D02*
X2019D01*
Y2799D01*
X2059D01*
Y2801D01*
X2056Y2812D01*
X2050Y2822D01*
X2042Y2830D01*
X2032Y2836D01*
X2021Y2839D01*
D02*
G37*
G36*
X2011D02*
X2009D01*
X1998Y2836D01*
X1988Y2830D01*
X1980Y2822D01*
X1974Y2812D01*
X1972Y2801D01*
Y2799D01*
X2011D01*
Y2839D01*
D02*
G37*
G36*
X3021D02*
X3009D01*
X2998Y2836D01*
X2988Y2830D01*
X2980Y2822D01*
X2974Y2812D01*
X2971Y2801D01*
Y2789D01*
X2974Y2778D01*
X2980Y2768D01*
X2988Y2760D01*
X2998Y2754D01*
X3009Y2751D01*
X3021D01*
X3032Y2754D01*
X3042Y2760D01*
X3050Y2768D01*
X3056Y2778D01*
X3059Y2789D01*
Y2801D01*
X3056Y2812D01*
X3050Y2822D01*
X3042Y2830D01*
X3032Y2836D01*
X3021Y2839D01*
D02*
G37*
G36*
X2059Y2791D02*
X2019D01*
Y2751D01*
X2021D01*
X2032Y2754D01*
X2042Y2760D01*
X2050Y2768D01*
X2056Y2778D01*
X2059Y2789D01*
Y2791D01*
D02*
G37*
G36*
X2011D02*
X1972D01*
Y2789D01*
X1974Y2778D01*
X1980Y2768D01*
X1988Y2760D01*
X1998Y2754D01*
X2009Y2751D01*
X2011D01*
Y2791D01*
D02*
G37*
G36*
X3021Y2739D02*
X3009D01*
X2998Y2736D01*
X2988Y2730D01*
X2980Y2722D01*
X2974Y2712D01*
X2971Y2701D01*
Y2689D01*
X2974Y2678D01*
X2980Y2668D01*
X2988Y2660D01*
X2998Y2654D01*
X3009Y2651D01*
X3021D01*
X3032Y2654D01*
X3042Y2660D01*
X3050Y2668D01*
X3056Y2678D01*
X3059Y2689D01*
Y2701D01*
X3056Y2712D01*
X3050Y2722D01*
X3042Y2730D01*
X3032Y2736D01*
X3021Y2739D01*
D02*
G37*
G36*
X2021D02*
X2009D01*
X1998Y2736D01*
X1988Y2730D01*
X1980Y2722D01*
X1974Y2712D01*
X1972Y2701D01*
Y2689D01*
X1974Y2678D01*
X1980Y2668D01*
X1988Y2660D01*
X1998Y2654D01*
X2009Y2651D01*
X2021D01*
X2032Y2654D01*
X2042Y2660D01*
X2050Y2668D01*
X2056Y2678D01*
X2059Y2689D01*
Y2701D01*
X2056Y2712D01*
X2050Y2722D01*
X2042Y2730D01*
X2032Y2736D01*
X2021Y2739D01*
D02*
G37*
G36*
Y2638D02*
X2009D01*
X1998Y2636D01*
X1988Y2630D01*
X1980Y2622D01*
X1974Y2612D01*
X1972Y2601D01*
Y2589D01*
X1974Y2578D01*
X1980Y2568D01*
X1988Y2560D01*
X1998Y2554D01*
X2009Y2552D01*
X2021D01*
X2032Y2554D01*
X2042Y2560D01*
X2050Y2568D01*
X2056Y2578D01*
X2059Y2589D01*
Y2601D01*
X2056Y2612D01*
X2050Y2622D01*
X2042Y2630D01*
X2032Y2636D01*
X2021Y2638D01*
D02*
G37*
G36*
X3021Y2539D02*
X3009D01*
X2998Y2536D01*
X2988Y2530D01*
X2980Y2522D01*
X2974Y2512D01*
X2971Y2501D01*
Y2489D01*
X2974Y2478D01*
X2980Y2468D01*
X2988Y2460D01*
X2998Y2454D01*
X3009Y2451D01*
X3021D01*
X3032Y2454D01*
X3042Y2460D01*
X3050Y2468D01*
X3056Y2478D01*
X3059Y2489D01*
Y2501D01*
X3056Y2512D01*
X3050Y2522D01*
X3042Y2530D01*
X3032Y2536D01*
X3021Y2539D01*
D02*
G37*
G36*
X2021D02*
X2009D01*
X1998Y2536D01*
X1988Y2530D01*
X1980Y2522D01*
X1974Y2512D01*
X1972Y2501D01*
Y2489D01*
X1974Y2478D01*
X1980Y2468D01*
X1988Y2460D01*
X1998Y2454D01*
X2009Y2451D01*
X2021D01*
X2032Y2454D01*
X2042Y2460D01*
X2050Y2468D01*
X2056Y2478D01*
X2059Y2489D01*
Y2501D01*
X2056Y2512D01*
X2050Y2522D01*
X2042Y2530D01*
X2032Y2536D01*
X2021Y2539D01*
D02*
G37*
G36*
X2242Y3081D02*
X1780D01*
X1772Y3080D01*
X1765Y3075D01*
X1660Y2970D01*
X1655Y2963D01*
X1654Y2955D01*
Y2834D01*
X1540Y2720D01*
X1535Y2713D01*
X1534Y2705D01*
Y2463D01*
X1535Y2454D01*
X1540Y2447D01*
X1557Y2430D01*
X1564Y2425D01*
X1573Y2424D01*
X1589D01*
Y2420D01*
X1592Y2408D01*
X1598Y2398D01*
X1606Y2390D01*
X1616Y2384D01*
X1627Y2381D01*
X1639D01*
X1650Y2384D01*
X1660Y2390D01*
X1669Y2398D01*
X1675Y2408D01*
X1678Y2420D01*
Y2431D01*
X1675Y2442D01*
X1669Y2453D01*
X1660Y2461D01*
X1650Y2467D01*
X1639Y2470D01*
X1627D01*
X1616Y2467D01*
X1611Y2464D01*
X1609Y2465D01*
X1601Y2466D01*
X1581D01*
X1576Y2471D01*
Y2696D01*
X1690Y2810D01*
X1695Y2817D01*
X1696Y2825D01*
Y2946D01*
X1789Y3039D01*
X2234D01*
X2239Y3034D01*
Y2520D01*
X2240Y2512D01*
X2241Y2510D01*
Y2451D01*
X2242Y2446D01*
X2245Y2441D01*
X2254Y2433D01*
X2259Y2430D01*
X2264Y2429D01*
X2354D01*
X2357Y2424D01*
Y2410D01*
X2354Y2405D01*
X2239D01*
X2235Y2410D01*
X2235Y2410D01*
X2224Y2421D01*
Y2499D01*
X2225Y2500D01*
X2230Y2507D01*
X2231Y2515D01*
Y2987D01*
X2230Y2996D01*
X2225Y3003D01*
X2208Y3020D01*
X2201Y3025D01*
X2192Y3026D01*
X1795D01*
X1787Y3025D01*
X1780Y3020D01*
X1720Y2960D01*
X1715Y2953D01*
X1714Y2945D01*
Y2590D01*
X1709Y2585D01*
X1678D01*
Y2608D01*
X1589D01*
Y2519D01*
X1678D01*
Y2542D01*
X1717D01*
X1726Y2543D01*
X1733Y2548D01*
X1750Y2566D01*
X1755Y2573D01*
X1756Y2581D01*
Y2936D01*
X1804Y2984D01*
X2184D01*
X2189Y2979D01*
Y2560D01*
X2184Y2558D01*
X2182Y2560D01*
X2176Y2563D01*
Y2897D01*
X2176Y2898D01*
X2175Y2903D01*
X2172Y2907D01*
X2140Y2940D01*
X2135Y2943D01*
X2130Y2944D01*
X1870D01*
X1865Y2943D01*
X1860Y2940D01*
X1860Y2940D01*
X1805Y2885D01*
X1802Y2880D01*
X1801Y2875D01*
Y2039D01*
X1801Y2039D01*
X1685D01*
X1680Y2038D01*
X1675Y2035D01*
X1630Y1990D01*
X1627Y1985D01*
X1626Y1980D01*
Y1933D01*
X1618Y1928D01*
X1612Y1922D01*
X1607Y1914D01*
X1604Y1905D01*
Y1895D01*
X1607Y1886D01*
X1612Y1878D01*
X1618Y1872D01*
X1626Y1867D01*
X1635Y1864D01*
X1645D01*
X1654Y1867D01*
X1662Y1872D01*
X1668Y1878D01*
X1673Y1886D01*
X1676Y1895D01*
Y1905D01*
X1673Y1914D01*
X1668Y1922D01*
X1662Y1928D01*
X1654Y1933D01*
Y1974D01*
X1691Y2011D01*
X1806D01*
X1811Y2012D01*
X1816Y2015D01*
X1825Y2024D01*
X1828Y2029D01*
X1829Y2034D01*
Y2869D01*
X1876Y2916D01*
X2124D01*
X2149Y2892D01*
Y2563D01*
X2143Y2560D01*
X2138Y2554D01*
X2134Y2547D01*
X2132Y2539D01*
Y2531D01*
X2134Y2523D01*
X2138Y2516D01*
X2143Y2510D01*
X2149Y2507D01*
Y1967D01*
X2150Y1962D01*
X2153Y1958D01*
X2192Y1918D01*
X2190Y1913D01*
X2189D01*
X2184Y1912D01*
X2180Y1909D01*
X2165Y1895D01*
X2162Y1890D01*
X2161Y1885D01*
Y1883D01*
X2156Y1880D01*
X2150Y1874D01*
X2146Y1867D01*
X2144Y1859D01*
Y1851D01*
X2146Y1843D01*
X2150Y1836D01*
X2156Y1830D01*
X2163Y1826D01*
X2171Y1824D01*
X2179D01*
X2187Y1826D01*
X2194Y1830D01*
X2200Y1836D01*
X2204Y1843D01*
X2206Y1851D01*
Y1859D01*
X2204Y1867D01*
X2200Y1874D01*
X2194Y1880D01*
X2194Y1881D01*
X2198Y1886D01*
X2349D01*
X2352Y1881D01*
Y1867D01*
X2349Y1862D01*
X2242D01*
X2237Y1861D01*
X2232Y1858D01*
X2223Y1849D01*
X2220Y1845D01*
X2219Y1839D01*
Y1772D01*
X2216Y1770D01*
X2210Y1764D01*
X2206Y1757D01*
X2204Y1749D01*
Y1741D01*
X2206Y1733D01*
X2210Y1726D01*
X2216Y1720D01*
X2223Y1716D01*
X2231Y1714D01*
X2239D01*
X2247Y1716D01*
X2254Y1720D01*
X2260Y1726D01*
X2264Y1733D01*
X2266Y1741D01*
Y1749D01*
X2264Y1757D01*
X2260Y1764D01*
X2254Y1770D01*
X2247Y1774D01*
X2247Y1774D01*
Y1834D01*
X2247Y1834D01*
X2298D01*
X2300Y1829D01*
X2275Y1805D01*
X2272Y1800D01*
X2271Y1795D01*
Y1723D01*
X2266Y1720D01*
X2260Y1714D01*
X2256Y1707D01*
X2254Y1699D01*
Y1691D01*
X2256Y1683D01*
X2260Y1676D01*
X2266Y1670D01*
X2273Y1666D01*
X2281Y1664D01*
X2289D01*
X2297Y1666D01*
X2304Y1670D01*
X2305Y1671D01*
X2310Y1669D01*
Y1654D01*
X2308Y1654D01*
X2301Y1650D01*
X2295Y1644D01*
X2291Y1637D01*
X2289Y1629D01*
Y1621D01*
X2291Y1613D01*
X2295Y1606D01*
X2301Y1600D01*
X2308Y1596D01*
X2316Y1594D01*
X2324D01*
X2332Y1596D01*
X2339Y1600D01*
X2345Y1606D01*
X2349Y1613D01*
X2351Y1621D01*
Y1629D01*
X2349Y1637D01*
X2345Y1644D01*
X2339Y1650D01*
X2337Y1651D01*
Y1757D01*
X2338Y1758D01*
X2349D01*
X2352Y1753D01*
Y1739D01*
X2353Y1736D01*
X2355Y1733D01*
X2357Y1731D01*
X2360Y1731D01*
X2420D01*
X2423Y1731D01*
X2425Y1733D01*
X2427Y1736D01*
X2428Y1739D01*
Y1753D01*
X2427Y1756D01*
X2425Y1759D01*
X2427Y1761D01*
X2428Y1765D01*
Y1778D01*
X2431Y1783D01*
X2457D01*
X2462Y1784D01*
X2467Y1787D01*
X2495Y1815D01*
X2498Y1820D01*
X2499Y1825D01*
Y1834D01*
X2538D01*
X2540Y1829D01*
X2455Y1745D01*
X2452Y1740D01*
X2451Y1735D01*
Y1676D01*
X2450Y1675D01*
X2445Y1668D01*
X2444Y1660D01*
Y1579D01*
X2405Y1540D01*
X2400Y1533D01*
X2399Y1525D01*
Y1511D01*
X2345D01*
X2337Y1510D01*
X2330Y1505D01*
X2210Y1385D01*
X2205Y1378D01*
X2204Y1370D01*
Y1021D01*
X2199Y1016D01*
X2053D01*
X2050Y1022D01*
X2042Y1030D01*
X2032Y1036D01*
X2021Y1038D01*
X2009D01*
X1998Y1036D01*
X1988Y1030D01*
X1980Y1022D01*
X1977Y1016D01*
X1880D01*
X1872Y1015D01*
X1865Y1010D01*
X1821Y966D01*
X1816D01*
X1808Y964D01*
X1801Y960D01*
X1795Y954D01*
X1791Y947D01*
X1789Y939D01*
Y931D01*
X1791Y923D01*
X1795Y916D01*
X1801Y910D01*
X1808Y906D01*
X1816Y904D01*
X1824D01*
X1832Y906D01*
X1839Y910D01*
X1845Y916D01*
X1849Y923D01*
X1851Y931D01*
Y936D01*
X1889Y974D01*
X1977D01*
X1980Y968D01*
X1988Y960D01*
X1998Y954D01*
X2009Y951D01*
X2021D01*
X2032Y954D01*
X2042Y960D01*
X2050Y968D01*
X2053Y974D01*
X2207D01*
X2216Y975D01*
X2223Y980D01*
X2240Y997D01*
X2245Y1004D01*
X2246Y1013D01*
Y1361D01*
X2354Y1469D01*
X2391D01*
X2399Y1461D01*
Y1414D01*
Y1370D01*
X2400Y1363D01*
Y1304D01*
X2440D01*
Y1363D01*
X2441Y1370D01*
Y1404D01*
X2447Y1405D01*
X2454Y1410D01*
X2500Y1456D01*
X2505Y1463D01*
X2506Y1471D01*
Y1501D01*
X2534Y1529D01*
X2764D01*
X2779Y1514D01*
Y1137D01*
X2775Y1134D01*
X2771Y1127D01*
X2769Y1119D01*
Y1111D01*
X2771Y1103D01*
X2775Y1096D01*
X2781Y1090D01*
X2788Y1086D01*
X2796Y1084D01*
X2804D01*
X2812Y1086D01*
X2819Y1090D01*
X2825Y1096D01*
X2829Y1103D01*
X2831Y1111D01*
Y1119D01*
X2829Y1127D01*
X2825Y1134D01*
X2821Y1137D01*
Y1522D01*
X2820Y1531D01*
X2815Y1538D01*
X2788Y1565D01*
X2781Y1570D01*
X2772Y1571D01*
X2525D01*
X2517Y1570D01*
X2510Y1565D01*
X2470Y1525D01*
X2465Y1518D01*
X2464Y1510D01*
Y1480D01*
X2446Y1463D01*
X2441Y1465D01*
Y1516D01*
X2480Y1555D01*
X2485Y1562D01*
X2486Y1570D01*
Y1660D01*
X2485Y1668D01*
X2480Y1675D01*
X2479Y1676D01*
Y1729D01*
X2558Y1809D01*
X2589D01*
X2593Y1804D01*
Y1790D01*
X2593Y1787D01*
X2592Y1784D01*
X2590Y1782D01*
X2586Y1780D01*
X2560Y1754D01*
X2557Y1749D01*
X2556Y1744D01*
Y1705D01*
X2557Y1700D01*
X2560Y1695D01*
X2635Y1620D01*
X2640Y1617D01*
X2645Y1616D01*
X2890D01*
X2892Y1611D01*
X2850Y1570D01*
X2847Y1565D01*
X2846Y1560D01*
Y1006D01*
X2734Y894D01*
X1739D01*
X1679Y954D01*
Y979D01*
X1682D01*
X1691Y981D01*
X1698Y986D01*
X1703Y994D01*
X1705Y1003D01*
Y1067D01*
X1703Y1076D01*
X1698Y1084D01*
X1691Y1089D01*
X1682Y1091D01*
X1648D01*
X1639Y1089D01*
X1632Y1084D01*
X1627Y1076D01*
X1625Y1067D01*
Y1003D01*
X1627Y994D01*
X1632Y986D01*
X1639Y981D01*
X1648Y979D01*
X1651D01*
Y949D01*
X1652Y944D01*
X1655Y939D01*
X1724Y870D01*
X1729Y867D01*
X1734Y866D01*
X2740D01*
X2745Y867D01*
X2750Y870D01*
X2870Y990D01*
X2873Y995D01*
X2874Y1000D01*
Y1554D01*
X2909Y1590D01*
X2971D01*
Y1589D01*
X2974Y1578D01*
X2980Y1568D01*
X2988Y1560D01*
X2998Y1554D01*
X3009Y1551D01*
X3021D01*
X3032Y1554D01*
X3042Y1560D01*
X3050Y1568D01*
X3056Y1578D01*
X3059Y1589D01*
Y1601D01*
X3056Y1612D01*
X3050Y1622D01*
X3042Y1630D01*
X3032Y1636D01*
X3021Y1638D01*
X3009D01*
X2998Y1636D01*
X2988Y1630D01*
X2980Y1622D01*
X2978Y1618D01*
X2969D01*
X2967Y1623D01*
X2999Y1654D01*
X3009Y1651D01*
X3021D01*
X3032Y1654D01*
X3042Y1660D01*
X3050Y1668D01*
X3056Y1678D01*
X3059Y1689D01*
Y1701D01*
X3056Y1712D01*
X3050Y1722D01*
X3042Y1730D01*
X3032Y1736D01*
X3021Y1738D01*
X3009D01*
X2998Y1736D01*
X2988Y1730D01*
X2980Y1722D01*
X2979Y1719D01*
X2974Y1721D01*
Y1769D01*
X2974Y1770D01*
X2979D01*
X2980Y1768D01*
X2988Y1760D01*
X2998Y1754D01*
X3009Y1752D01*
X3021D01*
X3032Y1754D01*
X3042Y1760D01*
X3050Y1768D01*
X3056Y1778D01*
X3059Y1789D01*
Y1801D01*
X3056Y1812D01*
X3050Y1822D01*
X3042Y1830D01*
X3032Y1836D01*
X3021Y1839D01*
X3009D01*
X2998Y1836D01*
X2988Y1830D01*
X2980Y1822D01*
X2974Y1812D01*
X2971Y1801D01*
Y1797D01*
X2969D01*
X2964Y1796D01*
X2959Y1793D01*
X2950Y1784D01*
X2947Y1780D01*
X2946Y1775D01*
Y1681D01*
X2930Y1665D01*
X2872D01*
Y1735D01*
Y1808D01*
X2798D01*
Y1807D01*
X2793Y1807D01*
X2793Y1811D01*
X2790Y1815D01*
X2772Y1832D01*
X2768Y1835D01*
X2763Y1836D01*
X2762Y1837D01*
X2761Y1841D01*
X2786Y1866D01*
X2798D01*
Y1844D01*
X2872D01*
Y1850D01*
X2876Y1852D01*
X2878Y1851D01*
X2886Y1849D01*
X2894D01*
X2902Y1851D01*
X2909Y1855D01*
X2915Y1861D01*
X2919Y1868D01*
X2921Y1876D01*
Y1884D01*
X2919Y1892D01*
X2915Y1899D01*
X2909Y1905D01*
X2902Y1909D01*
X2894Y1911D01*
X2886D01*
X2878Y1909D01*
X2876Y1908D01*
X2872Y1910D01*
Y1977D01*
X2877Y1979D01*
X2914Y1942D01*
Y1928D01*
X2915Y1922D01*
X2918Y1918D01*
X2945Y1890D01*
X2945Y1890D01*
X2950Y1885D01*
X2955Y1882D01*
X2960Y1881D01*
X2974D01*
X2974Y1878D01*
X2980Y1868D01*
X2988Y1860D01*
X2998Y1854D01*
X3009Y1852D01*
X3021D01*
X3032Y1854D01*
X3042Y1860D01*
X3050Y1868D01*
X3056Y1878D01*
X3059Y1889D01*
Y1901D01*
X3056Y1912D01*
X3050Y1922D01*
X3042Y1930D01*
X3032Y1936D01*
X3021Y1939D01*
X3009D01*
X2998Y1936D01*
X2988Y1930D01*
X2980Y1922D01*
X2974Y1912D01*
X2974Y1909D01*
X2966D01*
X2965Y1910D01*
X2965Y1910D01*
X2941Y1933D01*
Y1947D01*
X2940Y1953D01*
X2937Y1957D01*
X2937Y1957D01*
X2897Y1998D01*
X2899Y2002D01*
X2921D01*
X2938Y1985D01*
X2942Y1982D01*
X2947Y1981D01*
X2947Y1981D01*
X2974D01*
X2974Y1978D01*
X2980Y1968D01*
X2988Y1960D01*
X2998Y1954D01*
X3009Y1952D01*
X3021D01*
X3032Y1954D01*
X3042Y1960D01*
X3050Y1968D01*
X3056Y1978D01*
X3059Y1989D01*
Y2001D01*
X3056Y2012D01*
X3050Y2022D01*
X3042Y2030D01*
X3032Y2036D01*
X3021Y2039D01*
X3009D01*
X2998Y2036D01*
X2988Y2030D01*
X2980Y2022D01*
X2974Y2012D01*
X2974Y2009D01*
X2953D01*
X2936Y2026D01*
X2932Y2029D01*
X2926Y2030D01*
X2706D01*
X2701Y2029D01*
X2696Y2026D01*
X2660Y1990D01*
X2657Y1985D01*
X2656Y1980D01*
Y1941D01*
X2656Y1940D01*
X2632D01*
X2631Y1940D01*
X2601D01*
X2598Y1939D01*
X2595Y1938D01*
X2593Y1935D01*
X2593Y1932D01*
Y1918D01*
X2593Y1915D01*
X2595Y1912D01*
X2593Y1909D01*
X2593Y1906D01*
Y1893D01*
X2593Y1889D01*
X2595Y1887D01*
Y1886D01*
X2593Y1884D01*
X2593Y1881D01*
Y1867D01*
X2589Y1862D01*
X2499D01*
X2495Y1867D01*
X2496Y1871D01*
Y1879D01*
X2494Y1887D01*
X2490Y1894D01*
X2484Y1900D01*
X2477Y1904D01*
X2469Y1906D01*
X2461D01*
X2453Y1904D01*
X2446Y1900D01*
X2440Y1894D01*
X2436Y1888D01*
X2431D01*
X2428Y1893D01*
Y1906D01*
X2427Y1909D01*
X2425Y1912D01*
X2427Y1915D01*
X2428Y1918D01*
Y1932D01*
X2427Y1935D01*
X2425Y1938D01*
X2423Y1939D01*
X2420Y1940D01*
X2360D01*
X2357Y1939D01*
X2356Y1939D01*
X2211D01*
X2176Y1973D01*
Y2507D01*
X2182Y2510D01*
X2184Y2513D01*
X2189Y2511D01*
X2190Y2507D01*
X2195Y2500D01*
X2196Y2499D01*
Y2415D01*
X2197Y2410D01*
X2200Y2405D01*
X2215Y2390D01*
X2215Y2390D01*
X2224Y2381D01*
X2224Y2381D01*
X2229Y2379D01*
X2234Y2377D01*
X2354D01*
X2357Y2373D01*
Y2359D01*
X2358Y2356D01*
X2360Y2353D01*
X2362Y2351D01*
X2365Y2351D01*
X2425D01*
X2428Y2351D01*
X2430Y2353D01*
X2432Y2356D01*
X2433Y2359D01*
Y2373D01*
X2432Y2376D01*
X2430Y2378D01*
X2432Y2381D01*
X2433Y2384D01*
Y2393D01*
X2438Y2398D01*
X2439Y2398D01*
X2440Y2396D01*
X2446Y2390D01*
X2453Y2386D01*
X2461Y2384D01*
X2469D01*
X2477Y2386D01*
X2484Y2390D01*
X2490Y2396D01*
X2494Y2403D01*
X2496Y2411D01*
Y2419D01*
X2494Y2427D01*
X2490Y2434D01*
X2484Y2440D01*
X2479Y2443D01*
Y2480D01*
X2486D01*
X2500Y2465D01*
X2500Y2465D01*
X2507Y2458D01*
X2512Y2455D01*
X2517Y2454D01*
X2517Y2454D01*
X2594D01*
X2598Y2449D01*
Y2435D01*
X2598Y2432D01*
X2600Y2430D01*
Y2429D01*
X2598Y2427D01*
X2598Y2424D01*
Y2410D01*
X2594Y2405D01*
X2586D01*
X2586Y2405D01*
X2581Y2404D01*
X2576Y2401D01*
X2576Y2401D01*
X2555Y2380D01*
X2552Y2375D01*
X2551Y2370D01*
Y2318D01*
X2546Y2315D01*
X2540Y2309D01*
X2536Y2302D01*
X2534Y2294D01*
Y2286D01*
X2536Y2278D01*
X2540Y2271D01*
X2546Y2265D01*
X2553Y2261D01*
X2561Y2259D01*
X2569D01*
X2577Y2261D01*
X2584Y2265D01*
X2590Y2271D01*
X2594Y2278D01*
X2596Y2286D01*
Y2294D01*
X2594Y2302D01*
X2590Y2309D01*
X2584Y2315D01*
X2579Y2318D01*
Y2364D01*
X2590Y2375D01*
X2596Y2375D01*
X2598Y2373D01*
Y2359D01*
X2598Y2356D01*
X2600Y2353D01*
X2603Y2351D01*
X2606Y2351D01*
X2636D01*
X2637Y2351D01*
X2671D01*
Y2324D01*
X2581Y2234D01*
X2543D01*
X2540Y2239D01*
X2534Y2245D01*
X2527Y2249D01*
X2519Y2251D01*
X2511D01*
X2503Y2249D01*
X2496Y2245D01*
X2490Y2239D01*
X2486Y2232D01*
X2484Y2224D01*
Y2216D01*
X2486Y2208D01*
X2490Y2201D01*
X2496Y2195D01*
X2503Y2191D01*
X2511Y2189D01*
X2519D01*
X2527Y2191D01*
X2534Y2195D01*
X2540Y2201D01*
X2543Y2206D01*
X2586D01*
X2591Y2207D01*
X2596Y2210D01*
X2695Y2309D01*
X2695Y2309D01*
X2698Y2314D01*
X2699Y2319D01*
Y2356D01*
X2698Y2361D01*
X2695Y2366D01*
X2695Y2366D01*
X2687Y2374D01*
X2682Y2377D01*
X2677Y2378D01*
X2676D01*
X2675Y2379D01*
X2673Y2383D01*
X2673Y2384D01*
Y2398D01*
X2677Y2403D01*
X2702D01*
X2721Y2384D01*
Y2335D01*
X2722Y2330D01*
X2725Y2325D01*
X2738Y2312D01*
X2743Y2309D01*
X2748Y2308D01*
X2793D01*
Y2286D01*
X2867D01*
Y2358D01*
Y2389D01*
X2898D01*
X2906Y2391D01*
X2913Y2395D01*
X2915Y2397D01*
X2920Y2404D01*
X2921Y2413D01*
Y2834D01*
X2924Y2835D01*
X2930Y2841D01*
X2934Y2848D01*
X2936Y2856D01*
Y2864D01*
X3171D01*
X3184Y2851D01*
Y2505D01*
X3185Y2497D01*
X3190Y2490D01*
X3299Y2381D01*
Y2134D01*
X3275Y2110D01*
X3270Y2103D01*
X3269Y2095D01*
Y1920D01*
X3270Y1912D01*
X3275Y1905D01*
X3307Y1873D01*
Y1804D01*
X3306Y1803D01*
X3300Y1797D01*
X3295Y1789D01*
X3293Y1780D01*
Y1770D01*
X3295Y1761D01*
X3300Y1753D01*
X3306Y1747D01*
X3314Y1742D01*
X3323Y1739D01*
X3333D01*
X3342Y1742D01*
X3350Y1747D01*
X3357Y1753D01*
X3361Y1761D01*
X3364Y1770D01*
Y1780D01*
X3361Y1789D01*
X3357Y1797D01*
X3350Y1803D01*
X3350Y1804D01*
Y1882D01*
X3348Y1890D01*
X3343Y1897D01*
X3311Y1929D01*
Y2086D01*
X3335Y2110D01*
X3340Y2117D01*
X3341Y2125D01*
Y2390D01*
X3340Y2398D01*
X3335Y2405D01*
X3226Y2514D01*
Y2860D01*
X3225Y2868D01*
X3220Y2875D01*
X3195Y2900D01*
X3188Y2905D01*
X3180Y2906D01*
X2918D01*
X2909Y2905D01*
X2902Y2900D01*
X2898Y2893D01*
X2897Y2890D01*
X2893Y2889D01*
X2886Y2885D01*
X2880Y2879D01*
X2876Y2872D01*
X2874Y2864D01*
Y2856D01*
X2876Y2848D01*
X2879Y2844D01*
Y2432D01*
X2846D01*
X2843Y2432D01*
X2813D01*
X2792Y2452D01*
X2788Y2455D01*
X2783Y2456D01*
X2677D01*
X2673Y2461D01*
Y2475D01*
X2677Y2480D01*
X2793D01*
Y2468D01*
X2867D01*
Y2538D01*
Y2610D01*
X2839D01*
Y2632D01*
X2844Y2635D01*
X2850Y2641D01*
X2854Y2648D01*
X2856Y2656D01*
Y2664D01*
X2854Y2672D01*
X2850Y2679D01*
X2844Y2685D01*
X2837Y2689D01*
X2829Y2691D01*
X2821D01*
X2813Y2689D01*
X2806Y2685D01*
X2800Y2679D01*
X2796Y2672D01*
X2794Y2664D01*
Y2656D01*
X2796Y2648D01*
X2800Y2641D01*
X2806Y2635D01*
X2811Y2632D01*
Y2610D01*
X2793D01*
Y2538D01*
Y2507D01*
X2677D01*
X2673Y2512D01*
Y2526D01*
X2672Y2529D01*
X2671Y2532D01*
X2672Y2535D01*
X2673Y2538D01*
Y2552D01*
X2672Y2555D01*
X2670Y2557D01*
X2668Y2559D01*
X2665Y2560D01*
X2617D01*
X2589Y2588D01*
X2589Y2588D01*
X2591Y2596D01*
Y2604D01*
X2589Y2612D01*
X2585Y2619D01*
X2579Y2625D01*
X2572Y2629D01*
X2564Y2631D01*
X2556D01*
X2548Y2629D01*
X2541Y2625D01*
X2535Y2619D01*
X2531Y2612D01*
X2526Y2611D01*
X2525Y2613D01*
X2512Y2625D01*
X2514Y2628D01*
X2516Y2636D01*
Y2644D01*
X2514Y2652D01*
X2510Y2659D01*
X2504Y2665D01*
X2497Y2669D01*
X2489Y2671D01*
X2481D01*
X2473Y2669D01*
X2466Y2665D01*
X2460Y2659D01*
X2456Y2652D01*
X2454Y2644D01*
Y2636D01*
X2456Y2628D01*
X2460Y2621D01*
X2466Y2615D01*
X2473Y2611D01*
X2481Y2609D01*
X2489D01*
X2489Y2609D01*
X2501Y2597D01*
Y2540D01*
X2502Y2535D01*
X2505Y2530D01*
X2526Y2509D01*
X2531Y2506D01*
X2536Y2505D01*
X2594D01*
X2598Y2500D01*
Y2487D01*
X2594Y2482D01*
X2523D01*
X2520Y2485D01*
X2520Y2485D01*
X2501Y2503D01*
X2497Y2506D01*
X2491Y2507D01*
X2454D01*
X2452Y2512D01*
X2460Y2520D01*
X2460Y2520D01*
X2463Y2525D01*
X2464Y2530D01*
Y2570D01*
X2463Y2575D01*
X2460Y2580D01*
X2434Y2606D01*
Y2669D01*
X2435Y2670D01*
X2440Y2677D01*
X2441Y2685D01*
Y2931D01*
X2449Y2939D01*
X3239D01*
X3244Y2934D01*
Y2545D01*
X3245Y2537D01*
X3250Y2530D01*
X3335Y2445D01*
X3342Y2440D01*
X3350Y2439D01*
X3387D01*
Y2407D01*
X3476D01*
Y2495D01*
X3387D01*
Y2481D01*
X3359D01*
X3286Y2554D01*
Y2942D01*
X3285Y2951D01*
X3280Y2958D01*
X3263Y2975D01*
X3256Y2980D01*
X3247Y2981D01*
X2440D01*
X2432Y2980D01*
X2425Y2975D01*
X2405Y2955D01*
X2400Y2948D01*
X2399Y2940D01*
Y2685D01*
X2400Y2677D01*
X2405Y2670D01*
X2406Y2669D01*
Y2600D01*
X2407Y2595D01*
X2410Y2590D01*
X2436Y2564D01*
Y2557D01*
X2431Y2556D01*
X2430Y2557D01*
X2428Y2559D01*
X2425Y2560D01*
X2369D01*
Y2580D01*
X2372Y2581D01*
X2379Y2585D01*
X2385Y2591D01*
X2389Y2598D01*
X2391Y2606D01*
Y2614D01*
X2389Y2622D01*
X2385Y2629D01*
X2379Y2635D01*
X2372Y2639D01*
X2364Y2641D01*
X2356D01*
X2348Y2639D01*
X2341Y2635D01*
X2335Y2629D01*
X2334Y2627D01*
X2327Y2625D01*
X2326Y2625D01*
Y2926D01*
X2424Y3024D01*
X3224D01*
X3306Y2941D01*
Y2693D01*
X3308Y2685D01*
X3313Y2678D01*
X3389Y2601D01*
X3387Y2595D01*
Y2583D01*
X3390Y2572D01*
X3396Y2562D01*
X3405Y2553D01*
X3415Y2548D01*
X3426Y2545D01*
X3438D01*
X3449Y2548D01*
X3459Y2553D01*
X3467Y2562D01*
X3473Y2572D01*
X3476Y2583D01*
Y2595D01*
X3473Y2606D01*
X3467Y2616D01*
X3459Y2624D01*
X3449Y2630D01*
X3438Y2633D01*
X3426D01*
X3419Y2632D01*
X3349Y2702D01*
Y2950D01*
X3347Y2958D01*
X3343Y2965D01*
X3248Y3060D01*
X3241Y3065D01*
X3232Y3066D01*
X2415D01*
X2407Y3065D01*
X2400Y3060D01*
X2290Y2950D01*
X2286Y2945D01*
X2281Y2946D01*
Y3042D01*
X2280Y3051D01*
X2275Y3058D01*
X2258Y3075D01*
X2251Y3080D01*
X2242Y3081D01*
D02*
G37*
G36*
X3021Y2438D02*
X3009D01*
X2998Y2436D01*
X2988Y2430D01*
X2980Y2422D01*
X2974Y2412D01*
X2971Y2401D01*
Y2389D01*
X2974Y2378D01*
X2980Y2368D01*
X2988Y2360D01*
X2998Y2354D01*
X3009Y2352D01*
X3021D01*
X3032Y2354D01*
X3042Y2360D01*
X3050Y2368D01*
X3056Y2378D01*
X3059Y2389D01*
Y2401D01*
X3056Y2412D01*
X3050Y2422D01*
X3042Y2430D01*
X3032Y2436D01*
X3021Y2438D01*
D02*
G37*
G36*
X2021D02*
X2009D01*
X1998Y2436D01*
X1988Y2430D01*
X1980Y2422D01*
X1974Y2412D01*
X1972Y2401D01*
Y2389D01*
X1974Y2378D01*
X1980Y2368D01*
X1988Y2360D01*
X1998Y2354D01*
X2009Y2352D01*
X2021D01*
X2032Y2354D01*
X2042Y2360D01*
X2050Y2368D01*
X2056Y2378D01*
X2059Y2389D01*
Y2401D01*
X2056Y2412D01*
X2050Y2422D01*
X2042Y2430D01*
X2032Y2436D01*
X2021Y2438D01*
D02*
G37*
G36*
X1696Y2302D02*
X1666D01*
Y2269D01*
X1696D01*
Y2302D01*
D02*
G37*
G36*
X1658D02*
X1629D01*
Y2269D01*
X1658D01*
Y2302D01*
D02*
G37*
G36*
X3021Y2638D02*
X3009D01*
X2998Y2636D01*
X2988Y2630D01*
X2980Y2622D01*
X2974Y2612D01*
X2971Y2601D01*
Y2589D01*
X2974Y2578D01*
X2980Y2568D01*
X2988Y2560D01*
X2998Y2554D01*
X3009Y2552D01*
X3021D01*
X3032Y2554D01*
X3042Y2560D01*
X3050Y2568D01*
X3056Y2578D01*
X3056Y2581D01*
X3099D01*
X3128Y2552D01*
Y2269D01*
X3123Y2269D01*
X3123Y2270D01*
X3120Y2275D01*
X3090Y2305D01*
X3085Y2308D01*
X3080Y2309D01*
X3056D01*
X3056Y2312D01*
X3050Y2322D01*
X3042Y2330D01*
X3032Y2336D01*
X3021Y2339D01*
X3009D01*
X2998Y2336D01*
X2988Y2330D01*
X2980Y2322D01*
X2974Y2312D01*
X2971Y2301D01*
Y2289D01*
X2974Y2278D01*
X2980Y2268D01*
X2988Y2260D01*
X2998Y2254D01*
X3009Y2251D01*
X3021D01*
X3032Y2254D01*
X3042Y2260D01*
X3050Y2268D01*
X3056Y2278D01*
X3056Y2281D01*
X3074D01*
X3096Y2259D01*
Y891D01*
X3059Y854D01*
X2560D01*
X2555Y853D01*
X2550Y850D01*
X2521Y820D01*
X2518Y816D01*
X2517Y811D01*
Y755D01*
X2513Y752D01*
X2509D01*
X2508Y752D01*
X2495D01*
Y715D01*
Y678D01*
X2508D01*
X2509Y678D01*
X2513D01*
X2514Y678D01*
X2548D01*
Y678D01*
X2552D01*
Y678D01*
X2588D01*
Y752D01*
X2584D01*
Y799D01*
X2588Y804D01*
X3088D01*
X3093Y805D01*
X3097Y808D01*
X3152Y862D01*
X3155Y867D01*
X3156Y872D01*
Y2558D01*
X3156Y2558D01*
X3155Y2563D01*
X3152Y2568D01*
X3152Y2568D01*
X3115Y2605D01*
X3110Y2608D01*
X3105Y2609D01*
X3056D01*
X3056Y2612D01*
X3050Y2622D01*
X3042Y2630D01*
X3032Y2636D01*
X3021Y2638D01*
D02*
G37*
G36*
X2021Y2339D02*
X2009D01*
X1998Y2336D01*
X1988Y2330D01*
X1980Y2322D01*
X1974Y2312D01*
X1972Y2301D01*
Y2289D01*
X1974Y2278D01*
X1980Y2268D01*
X1988Y2260D01*
X1998Y2254D01*
X2009Y2251D01*
X2021D01*
X2032Y2254D01*
X2042Y2260D01*
X2050Y2268D01*
X2056Y2278D01*
X2059Y2289D01*
Y2301D01*
X2056Y2312D01*
X2050Y2322D01*
X2042Y2330D01*
X2032Y2336D01*
X2021Y2339D01*
D02*
G37*
G36*
X1696Y2261D02*
X1666D01*
Y2228D01*
X1696D01*
Y2261D01*
D02*
G37*
G36*
X1658D02*
X1629D01*
Y2228D01*
X1658D01*
Y2261D01*
D02*
G37*
G36*
X3438Y2266D02*
X3426D01*
X3415Y2263D01*
X3405Y2257D01*
X3396Y2249D01*
X3390Y2239D01*
X3387Y2227D01*
Y2216D01*
X3390Y2204D01*
X3396Y2194D01*
X3405Y2186D01*
X3415Y2180D01*
X3426Y2177D01*
X3438D01*
X3449Y2180D01*
X3459Y2186D01*
X3467Y2194D01*
X3473Y2204D01*
X3476Y2216D01*
Y2227D01*
X3473Y2239D01*
X3467Y2249D01*
X3459Y2257D01*
X3449Y2263D01*
X3438Y2266D01*
D02*
G37*
G36*
X3021Y2239D02*
X3009D01*
X2998Y2236D01*
X2988Y2230D01*
X2980Y2222D01*
X2974Y2212D01*
X2971Y2201D01*
Y2189D01*
X2974Y2178D01*
X2980Y2168D01*
X2988Y2160D01*
X2998Y2154D01*
X3009Y2151D01*
X3021D01*
X3032Y2154D01*
X3042Y2160D01*
X3050Y2168D01*
X3056Y2178D01*
X3059Y2189D01*
Y2201D01*
X3056Y2212D01*
X3050Y2222D01*
X3042Y2230D01*
X3032Y2236D01*
X3021Y2239D01*
D02*
G37*
G36*
X2021D02*
X2009D01*
X1998Y2236D01*
X1988Y2230D01*
X1980Y2222D01*
X1974Y2212D01*
X1972Y2201D01*
Y2189D01*
X1974Y2178D01*
X1980Y2168D01*
X1988Y2160D01*
X1998Y2154D01*
X2009Y2151D01*
X2021D01*
X2032Y2154D01*
X2042Y2160D01*
X2050Y2168D01*
X2056Y2178D01*
X2059Y2189D01*
Y2201D01*
X2056Y2212D01*
X2050Y2222D01*
X2042Y2230D01*
X2032Y2236D01*
X2021Y2239D01*
D02*
G37*
G36*
X3021Y2138D02*
X3009D01*
X2998Y2136D01*
X2988Y2130D01*
X2980Y2122D01*
X2974Y2112D01*
X2971Y2101D01*
Y2089D01*
X2974Y2078D01*
X2980Y2068D01*
X2988Y2060D01*
X2998Y2054D01*
X3009Y2052D01*
X3021D01*
X3032Y2054D01*
X3042Y2060D01*
X3050Y2068D01*
X3056Y2078D01*
X3059Y2089D01*
Y2101D01*
X3056Y2112D01*
X3050Y2122D01*
X3042Y2130D01*
X3032Y2136D01*
X3021Y2138D01*
D02*
G37*
G36*
X2021D02*
X2009D01*
X1998Y2136D01*
X1988Y2130D01*
X1980Y2122D01*
X1974Y2112D01*
X1972Y2101D01*
Y2089D01*
X1974Y2078D01*
X1980Y2068D01*
X1988Y2060D01*
X1998Y2054D01*
X2009Y2052D01*
X2021D01*
X2032Y2054D01*
X2042Y2060D01*
X2050Y2068D01*
X2056Y2078D01*
X2059Y2089D01*
Y2101D01*
X2056Y2112D01*
X2050Y2122D01*
X2042Y2130D01*
X2032Y2136D01*
X2021Y2138D01*
D02*
G37*
G36*
Y2039D02*
X2009D01*
X1998Y2036D01*
X1988Y2030D01*
X1980Y2022D01*
X1974Y2012D01*
X1972Y2001D01*
Y1989D01*
X1974Y1978D01*
X1980Y1968D01*
X1988Y1960D01*
X1998Y1954D01*
X2009Y1952D01*
X2021D01*
X2032Y1954D01*
X2042Y1960D01*
X2050Y1968D01*
X2056Y1978D01*
X2059Y1989D01*
Y2001D01*
X2056Y2012D01*
X2050Y2022D01*
X2042Y2030D01*
X2032Y2036D01*
X2021Y2039D01*
D02*
G37*
G36*
X1774Y1936D02*
X1703D01*
Y1864D01*
X1774D01*
Y1936D01*
D02*
G37*
G36*
X1621Y2302D02*
X1554D01*
Y2248D01*
X1532Y2226D01*
X1529Y2221D01*
X1528Y2216D01*
Y1933D01*
X1520Y1928D01*
X1513Y1922D01*
X1508Y1914D01*
X1506Y1905D01*
Y1895D01*
X1508Y1886D01*
X1513Y1878D01*
X1520Y1872D01*
X1528Y1867D01*
X1537Y1864D01*
X1546D01*
X1555Y1867D01*
X1563Y1872D01*
X1570Y1878D01*
X1575Y1886D01*
X1577Y1895D01*
Y1905D01*
X1575Y1914D01*
X1570Y1922D01*
X1563Y1928D01*
X1555Y1933D01*
Y2210D01*
X1574Y2228D01*
X1621D01*
Y2302D01*
D02*
G37*
G36*
X2021Y1939D02*
X2009D01*
X1998Y1936D01*
X1988Y1930D01*
X1980Y1922D01*
X1974Y1912D01*
X1972Y1901D01*
Y1889D01*
X1974Y1878D01*
X1980Y1868D01*
X1988Y1860D01*
X1998Y1854D01*
X2009Y1852D01*
X2021D01*
X2032Y1854D01*
X2042Y1860D01*
X2050Y1868D01*
X2056Y1878D01*
X2059Y1889D01*
Y1901D01*
X2056Y1912D01*
X2050Y1922D01*
X2042Y1930D01*
X2032Y1936D01*
X2021Y1939D01*
D02*
G37*
G36*
X3808Y2005D02*
X3792D01*
X3775Y2001D01*
X3760Y1995D01*
X3746Y1986D01*
X3734Y1974D01*
X3725Y1960D01*
X3719Y1945D01*
X3715Y1928D01*
Y1912D01*
X3719Y1895D01*
X3725Y1880D01*
X3734Y1866D01*
X3746Y1854D01*
X3760Y1845D01*
X3775Y1839D01*
X3792Y1835D01*
X3808D01*
X3825Y1839D01*
X3840Y1845D01*
X3854Y1854D01*
X3866Y1866D01*
X3875Y1880D01*
X3881Y1895D01*
X3885Y1912D01*
Y1928D01*
X3881Y1945D01*
X3875Y1960D01*
X3866Y1974D01*
X3854Y1986D01*
X3840Y1995D01*
X3825Y2001D01*
X3808Y2005D01*
D02*
G37*
G36*
X1238D02*
X1222D01*
X1205Y2001D01*
X1190Y1995D01*
X1176Y1986D01*
X1164Y1974D01*
X1155Y1960D01*
X1149Y1945D01*
X1145Y1928D01*
Y1912D01*
X1149Y1895D01*
X1155Y1880D01*
X1164Y1866D01*
X1176Y1854D01*
X1190Y1845D01*
X1205Y1839D01*
X1222Y1835D01*
X1238D01*
X1255Y1839D01*
X1270Y1845D01*
X1284Y1854D01*
X1296Y1866D01*
X1305Y1880D01*
X1311Y1895D01*
X1315Y1912D01*
Y1928D01*
X1311Y1945D01*
X1305Y1960D01*
X1296Y1974D01*
X1284Y1986D01*
X1270Y1995D01*
X1255Y2001D01*
X1238Y2005D01*
D02*
G37*
G36*
X2021Y1839D02*
X2009D01*
X1998Y1836D01*
X1988Y1830D01*
X1980Y1822D01*
X1974Y1812D01*
X1972Y1801D01*
Y1789D01*
X1974Y1778D01*
X1980Y1768D01*
X1988Y1760D01*
X1998Y1754D01*
X2009Y1752D01*
X2021D01*
X2032Y1754D01*
X2042Y1760D01*
X2050Y1768D01*
X2056Y1778D01*
X2059Y1789D01*
Y1801D01*
X2056Y1812D01*
X2050Y1822D01*
X2042Y1830D01*
X2032Y1836D01*
X2021Y1839D01*
D02*
G37*
G36*
X3561Y1811D02*
X3489D01*
Y1739D01*
X3561D01*
Y1811D01*
D02*
G37*
G36*
X3476Y2128D02*
X3387D01*
Y2039D01*
X3405D01*
Y1804D01*
X3405Y1803D01*
X3398Y1797D01*
X3393Y1789D01*
X3391Y1780D01*
Y1770D01*
X3393Y1761D01*
X3398Y1753D01*
X3405Y1747D01*
X3413Y1742D01*
X3422Y1739D01*
X3431D01*
X3440Y1742D01*
X3448Y1747D01*
X3455Y1753D01*
X3460Y1761D01*
X3462Y1770D01*
Y1780D01*
X3460Y1789D01*
X3455Y1797D01*
X3448Y1803D01*
X3448Y1804D01*
Y2039D01*
X3476D01*
Y2128D01*
D02*
G37*
G36*
X3699Y1816D02*
X3691D01*
X3683Y1814D01*
X3676Y1810D01*
X3670Y1804D01*
X3666Y1797D01*
X3664Y1789D01*
Y1781D01*
X3666Y1773D01*
X3670Y1766D01*
X3676Y1760D01*
X3683Y1756D01*
X3685Y1756D01*
Y1725D01*
X3686Y1722D01*
Y1674D01*
X3757D01*
Y1746D01*
X3728D01*
Y1768D01*
X3726Y1776D01*
X3725Y1778D01*
X3726Y1781D01*
Y1789D01*
X3724Y1797D01*
X3720Y1804D01*
X3714Y1810D01*
X3707Y1814D01*
X3699Y1816D01*
D02*
G37*
G36*
X2021Y1738D02*
X2009D01*
X1998Y1736D01*
X1988Y1730D01*
X1980Y1722D01*
X1974Y1712D01*
X1972Y1701D01*
Y1689D01*
X1974Y1678D01*
X1980Y1668D01*
X1988Y1660D01*
X1998Y1654D01*
X2009Y1651D01*
X2021D01*
X2032Y1654D01*
X2042Y1660D01*
X2050Y1668D01*
X2056Y1678D01*
X2059Y1689D01*
Y1701D01*
X2056Y1712D01*
X2050Y1722D01*
X2042Y1730D01*
X2032Y1736D01*
X2021Y1738D01*
D02*
G37*
G36*
X1693Y1652D02*
X1604D01*
Y1563D01*
X1693D01*
Y1652D01*
D02*
G37*
G36*
X2021Y1638D02*
X2009D01*
X1998Y1636D01*
X1988Y1630D01*
X1980Y1622D01*
X1974Y1612D01*
X1972Y1601D01*
Y1589D01*
X1974Y1578D01*
X1980Y1568D01*
X1988Y1560D01*
X1998Y1554D01*
X2009Y1551D01*
X2021D01*
X2032Y1554D01*
X2042Y1560D01*
X2050Y1568D01*
X2056Y1578D01*
X2059Y1589D01*
Y1601D01*
X2056Y1612D01*
X2050Y1622D01*
X2042Y1630D01*
X2032Y1636D01*
X2021Y1638D01*
D02*
G37*
G36*
X3438Y1622D02*
X3426D01*
X3415Y1619D01*
X3405Y1614D01*
X3396Y1605D01*
X3390Y1595D01*
X3387Y1584D01*
Y1572D01*
X3390Y1561D01*
X3396Y1551D01*
X3405Y1542D01*
X3415Y1537D01*
X3426Y1534D01*
X3438D01*
X3449Y1537D01*
X3459Y1542D01*
X3467Y1551D01*
X3473Y1561D01*
X3476Y1572D01*
Y1584D01*
X3473Y1595D01*
X3467Y1605D01*
X3459Y1614D01*
X3449Y1619D01*
X3438Y1622D01*
D02*
G37*
G36*
X3021Y1538D02*
X3009D01*
X2998Y1536D01*
X2988Y1530D01*
X2980Y1522D01*
X2974Y1512D01*
X2971Y1501D01*
Y1489D01*
X2974Y1478D01*
X2980Y1468D01*
X2988Y1460D01*
X2998Y1454D01*
X3009Y1452D01*
X3021D01*
X3032Y1454D01*
X3042Y1460D01*
X3050Y1468D01*
X3056Y1478D01*
X3059Y1489D01*
Y1501D01*
X3056Y1512D01*
X3050Y1522D01*
X3042Y1530D01*
X3032Y1536D01*
X3021Y1538D01*
D02*
G37*
G36*
X2021D02*
X2009D01*
X1998Y1536D01*
X1988Y1530D01*
X1980Y1522D01*
X1974Y1512D01*
X1972Y1501D01*
Y1489D01*
X1974Y1478D01*
X1980Y1468D01*
X1988Y1460D01*
X1998Y1454D01*
X2009Y1452D01*
X2021D01*
X2032Y1454D01*
X2042Y1460D01*
X2050Y1468D01*
X2056Y1478D01*
X2059Y1489D01*
Y1501D01*
X2056Y1512D01*
X2050Y1522D01*
X2042Y1530D01*
X2032Y1536D01*
X2021Y1538D01*
D02*
G37*
G36*
X1654Y1514D02*
X1642D01*
X1631Y1511D01*
X1621Y1505D01*
X1613Y1497D01*
X1607Y1487D01*
X1604Y1475D01*
Y1464D01*
X1607Y1452D01*
X1613Y1442D01*
X1621Y1434D01*
X1631Y1428D01*
X1642Y1425D01*
X1654D01*
X1665Y1428D01*
X1675Y1434D01*
X1684Y1442D01*
X1690Y1452D01*
X1693Y1464D01*
Y1475D01*
X1690Y1487D01*
X1684Y1497D01*
X1675Y1505D01*
X1665Y1511D01*
X1654Y1514D01*
D02*
G37*
G36*
X2021Y1439D02*
X2009D01*
X1998Y1436D01*
X1988Y1430D01*
X1980Y1422D01*
X1974Y1412D01*
X1974Y1409D01*
X1820D01*
X1820Y1409D01*
X1815Y1408D01*
X1810Y1405D01*
X1657Y1252D01*
X1654Y1247D01*
X1653Y1242D01*
Y1226D01*
X1650D01*
X1641Y1224D01*
X1634Y1219D01*
X1629Y1211D01*
X1627Y1202D01*
Y1138D01*
X1629Y1129D01*
X1634Y1121D01*
X1641Y1116D01*
X1650Y1114D01*
X1684D01*
X1692Y1116D01*
X1700Y1121D01*
X1705Y1129D01*
X1707Y1138D01*
Y1202D01*
X1705Y1211D01*
X1700Y1219D01*
X1692Y1224D01*
X1684Y1226D01*
X1681D01*
Y1236D01*
X1826Y1381D01*
X1974D01*
X1974Y1378D01*
X1980Y1368D01*
X1988Y1360D01*
X1998Y1354D01*
X2009Y1352D01*
X2021D01*
X2032Y1354D01*
X2042Y1360D01*
X2050Y1368D01*
X2056Y1378D01*
X2059Y1389D01*
Y1401D01*
X2056Y1412D01*
X2050Y1422D01*
X2042Y1430D01*
X2032Y1436D01*
X2021Y1439D01*
D02*
G37*
G36*
X3476Y1485D02*
X3387D01*
Y1396D01*
X3476D01*
Y1485D01*
D02*
G37*
G36*
X3021Y1439D02*
X3009D01*
X2998Y1436D01*
X2988Y1430D01*
X2980Y1422D01*
X2974Y1412D01*
X2971Y1401D01*
Y1389D01*
X2974Y1378D01*
X2980Y1368D01*
X2988Y1360D01*
X2998Y1354D01*
X3009Y1352D01*
X3021D01*
X3032Y1354D01*
X3042Y1360D01*
X3050Y1368D01*
X3056Y1378D01*
X3059Y1389D01*
Y1401D01*
X3056Y1412D01*
X3050Y1422D01*
X3042Y1430D01*
X3032Y1436D01*
X3021Y1439D01*
D02*
G37*
G36*
X2609Y1496D02*
X2601D01*
X2593Y1494D01*
X2586Y1490D01*
X2580Y1484D01*
X2576Y1477D01*
X2574Y1469D01*
Y1461D01*
X2576Y1453D01*
X2580Y1447D01*
Y1375D01*
X2579Y1370D01*
X2580Y1363D01*
Y1304D01*
X2620D01*
Y1362D01*
X2621Y1363D01*
X2622Y1371D01*
Y1439D01*
X2624Y1440D01*
X2630Y1446D01*
X2634Y1453D01*
X2636Y1461D01*
Y1469D01*
X2634Y1477D01*
X2630Y1484D01*
X2624Y1490D01*
X2617Y1494D01*
X2609Y1496D01*
D02*
G37*
G36*
X3894Y1746D02*
X3823D01*
Y1674D01*
X3834D01*
Y1612D01*
X3727Y1506D01*
X3702D01*
Y1446D01*
X3702Y1444D01*
Y1441D01*
X3702Y1439D01*
Y1379D01*
X3716D01*
Y1358D01*
X3711Y1355D01*
X3705Y1349D01*
X3701Y1342D01*
X3699Y1334D01*
Y1326D01*
X3701Y1318D01*
X3705Y1311D01*
X3711Y1305D01*
X3718Y1301D01*
X3726Y1299D01*
X3734D01*
X3742Y1301D01*
X3749Y1305D01*
X3755Y1311D01*
X3759Y1318D01*
X3761Y1326D01*
Y1334D01*
X3759Y1342D01*
X3755Y1349D01*
X3749Y1355D01*
X3744Y1358D01*
Y1379D01*
X3758D01*
Y1439D01*
X3758Y1441D01*
Y1444D01*
X3758Y1446D01*
Y1475D01*
X3870Y1588D01*
X3875Y1595D01*
X3876Y1603D01*
Y1674D01*
X3894D01*
Y1746D01*
D02*
G37*
G36*
X3021Y1339D02*
X3009D01*
X2998Y1336D01*
X2988Y1330D01*
X2980Y1322D01*
X2974Y1312D01*
X2971Y1301D01*
Y1289D01*
X2974Y1278D01*
X2980Y1268D01*
X2988Y1260D01*
X2998Y1254D01*
X3009Y1252D01*
X3021D01*
X3032Y1254D01*
X3042Y1260D01*
X3050Y1268D01*
X3056Y1278D01*
X3059Y1289D01*
Y1301D01*
X3056Y1312D01*
X3050Y1322D01*
X3042Y1330D01*
X3032Y1336D01*
X3021Y1339D01*
D02*
G37*
G36*
X2021D02*
X2009D01*
X1998Y1336D01*
X1988Y1330D01*
X1980Y1322D01*
X1974Y1312D01*
X1972Y1301D01*
Y1289D01*
X1974Y1278D01*
X1980Y1268D01*
X1988Y1260D01*
X1998Y1254D01*
X2009Y1252D01*
X2021D01*
X2032Y1254D01*
X2042Y1260D01*
X2050Y1268D01*
X2056Y1278D01*
X2059Y1289D01*
Y1301D01*
X2056Y1312D01*
X2050Y1322D01*
X2042Y1330D01*
X2032Y1336D01*
X2021Y1339D01*
D02*
G37*
G36*
X3569Y1232D02*
X3536D01*
Y1199D01*
X3569D01*
Y1232D01*
D02*
G37*
G36*
X3528D02*
X3494D01*
Y1199D01*
X3528D01*
Y1232D01*
D02*
G37*
G36*
X1584Y1226D02*
X1571D01*
Y1174D01*
X1607D01*
Y1202D01*
X1605Y1211D01*
X1600Y1219D01*
X1592Y1224D01*
X1584Y1226D01*
D02*
G37*
G36*
X1563D02*
X1550D01*
X1541Y1224D01*
X1534Y1219D01*
X1529Y1211D01*
X1527Y1202D01*
Y1174D01*
X1563D01*
Y1226D01*
D02*
G37*
G36*
X3569Y1191D02*
X3536D01*
Y1158D01*
X3569D01*
Y1191D01*
D02*
G37*
G36*
X3528D02*
X3494D01*
Y1158D01*
X3528D01*
Y1191D01*
D02*
G37*
G36*
X3437Y1232D02*
X3427D01*
X3417Y1230D01*
X3409Y1225D01*
X3402Y1218D01*
X3397Y1209D01*
X3394Y1200D01*
Y1190D01*
X3397Y1181D01*
X3402Y1172D01*
X3409Y1165D01*
X3417Y1160D01*
X3427Y1158D01*
X3437D01*
X3446Y1160D01*
X3455Y1165D01*
X3462Y1172D01*
X3467Y1181D01*
X3469Y1190D01*
Y1200D01*
X3467Y1209D01*
X3462Y1218D01*
X3455Y1225D01*
X3446Y1230D01*
X3437Y1232D01*
D02*
G37*
G36*
X3224Y2116D02*
X3216D01*
X3208Y2114D01*
X3201Y2110D01*
X3195Y2104D01*
X3191Y2097D01*
X3189Y2089D01*
Y2081D01*
X3191Y2073D01*
X3195Y2066D01*
X3201Y2060D01*
X3206Y2057D01*
Y1307D01*
X3207Y1302D01*
X3210Y1297D01*
X3297Y1210D01*
X3297Y1209D01*
X3294Y1200D01*
Y1190D01*
X3297Y1181D01*
X3302Y1172D01*
X3309Y1165D01*
X3317Y1160D01*
X3327Y1158D01*
X3337D01*
X3346Y1160D01*
X3355Y1165D01*
X3362Y1172D01*
X3367Y1181D01*
X3369Y1190D01*
Y1200D01*
X3367Y1209D01*
X3362Y1218D01*
X3355Y1225D01*
X3346Y1230D01*
X3337Y1232D01*
X3327D01*
X3317Y1230D01*
X3317Y1230D01*
X3234Y1313D01*
Y2057D01*
X3239Y2060D01*
X3245Y2066D01*
X3249Y2073D01*
X3251Y2081D01*
Y2089D01*
X3249Y2097D01*
X3245Y2104D01*
X3239Y2110D01*
X3232Y2114D01*
X3224Y2116D01*
D02*
G37*
G36*
X3021Y1238D02*
X3009D01*
X2998Y1236D01*
X2988Y1230D01*
X2980Y1222D01*
X2974Y1212D01*
X2971Y1201D01*
Y1189D01*
X2974Y1178D01*
X2980Y1168D01*
X2988Y1160D01*
X2998Y1154D01*
X3009Y1151D01*
X3021D01*
X3032Y1154D01*
X3042Y1160D01*
X3050Y1168D01*
X3056Y1178D01*
X3059Y1189D01*
Y1201D01*
X3056Y1212D01*
X3050Y1222D01*
X3042Y1230D01*
X3032Y1236D01*
X3021Y1238D01*
D02*
G37*
G36*
X2021D02*
X2009D01*
X1998Y1236D01*
X1988Y1230D01*
X1980Y1222D01*
X1974Y1212D01*
X1972Y1201D01*
Y1189D01*
X1974Y1178D01*
X1980Y1168D01*
X1988Y1160D01*
X1998Y1154D01*
X2009Y1151D01*
X2021D01*
X2032Y1154D01*
X2042Y1160D01*
X2050Y1168D01*
X2056Y1178D01*
X2059Y1189D01*
Y1201D01*
X2056Y1212D01*
X2050Y1222D01*
X2042Y1230D01*
X2032Y1236D01*
X2021Y1238D01*
D02*
G37*
G36*
X1784Y1226D02*
X1750D01*
X1741Y1224D01*
X1734Y1219D01*
X1729Y1211D01*
X1727Y1202D01*
Y1138D01*
X1729Y1129D01*
X1734Y1121D01*
X1741Y1116D01*
X1750Y1114D01*
X1784D01*
X1792Y1116D01*
X1800Y1121D01*
X1805Y1129D01*
X1807Y1138D01*
Y1202D01*
X1805Y1211D01*
X1800Y1219D01*
X1792Y1224D01*
X1784Y1226D01*
D02*
G37*
G36*
X1607Y1166D02*
X1571D01*
Y1114D01*
X1584D01*
X1592Y1116D01*
X1600Y1121D01*
X1605Y1129D01*
X1607Y1138D01*
Y1166D01*
D02*
G37*
G36*
X1563D02*
X1527D01*
Y1138D01*
X1529Y1129D01*
X1534Y1121D01*
X1541Y1116D01*
X1550Y1114D01*
X1563D01*
Y1166D01*
D02*
G37*
G36*
X3021Y1138D02*
X3009D01*
X2998Y1136D01*
X2988Y1130D01*
X2980Y1122D01*
X2974Y1112D01*
X2971Y1101D01*
Y1089D01*
X2974Y1078D01*
X2980Y1068D01*
X2988Y1060D01*
X2998Y1054D01*
X3009Y1051D01*
X3021D01*
X3032Y1054D01*
X3042Y1060D01*
X3050Y1068D01*
X3056Y1078D01*
X3059Y1089D01*
Y1101D01*
X3056Y1112D01*
X3050Y1122D01*
X3042Y1130D01*
X3032Y1136D01*
X3021Y1138D01*
D02*
G37*
G36*
X2021D02*
X2009D01*
X1998Y1136D01*
X1988Y1130D01*
X1980Y1122D01*
X1974Y1112D01*
X1972Y1101D01*
Y1089D01*
X1974Y1078D01*
X1980Y1068D01*
X1988Y1060D01*
X1998Y1054D01*
X2009Y1051D01*
X2021D01*
X2032Y1054D01*
X2042Y1060D01*
X2050Y1068D01*
X2056Y1078D01*
X2059Y1089D01*
Y1101D01*
X2056Y1112D01*
X2050Y1122D01*
X2042Y1130D01*
X2032Y1136D01*
X2021Y1138D01*
D02*
G37*
G36*
X2646Y1263D02*
X2374D01*
Y993D01*
X2646D01*
Y1054D01*
X2690D01*
X2692Y1054D01*
X2694D01*
X2696Y1055D01*
X2698Y1055D01*
X2700Y1056D01*
X2702Y1056D01*
X2704Y1057D01*
X2706Y1058D01*
X2707Y1059D01*
X2709Y1060D01*
X2710Y1062D01*
X2712Y1063D01*
X2713Y1065D01*
X2715Y1066D01*
X2716Y1068D01*
X2717Y1069D01*
X2718Y1071D01*
X2719Y1073D01*
X2719Y1075D01*
X2720Y1077D01*
X2720Y1079D01*
X2721Y1081D01*
Y1083D01*
X2721Y1085D01*
X2721Y1087D01*
Y1089D01*
X2720Y1091D01*
X2720Y1093D01*
X2719Y1095D01*
X2719Y1097D01*
X2718Y1099D01*
X2717Y1101D01*
X2716Y1102D01*
X2715Y1104D01*
X2713Y1105D01*
X2712Y1107D01*
X2710Y1108D01*
X2709Y1110D01*
X2707Y1111D01*
X2706Y1112D01*
X2704Y1113D01*
X2702Y1114D01*
X2700Y1114D01*
X2698Y1115D01*
X2696Y1115D01*
X2694Y1116D01*
X2692D01*
X2690Y1116D01*
X2646D01*
Y1263D01*
D02*
G37*
G36*
X1782Y1091D02*
X1748D01*
X1739Y1089D01*
X1732Y1084D01*
X1727Y1076D01*
X1725Y1067D01*
Y1003D01*
X1727Y994D01*
X1732Y986D01*
X1739Y981D01*
X1748Y979D01*
X1782D01*
X1791Y981D01*
X1798Y986D01*
X1803Y994D01*
X1805Y1003D01*
Y1067D01*
X1803Y1076D01*
X1798Y1084D01*
X1791Y1089D01*
X1782Y1091D01*
D02*
G37*
G36*
X1582D02*
X1548D01*
X1539Y1089D01*
X1532Y1084D01*
X1527Y1076D01*
X1525Y1067D01*
Y1003D01*
X1527Y994D01*
X1532Y986D01*
X1539Y981D01*
X1548Y979D01*
X1582D01*
X1591Y981D01*
X1598Y986D01*
X1603Y994D01*
X1605Y1003D01*
Y1067D01*
X1603Y1076D01*
X1598Y1084D01*
X1591Y1089D01*
X1582Y1091D01*
D02*
G37*
G36*
X3021Y1038D02*
X3009D01*
X2998Y1036D01*
X2988Y1030D01*
X2980Y1022D01*
X2974Y1012D01*
X2971Y1001D01*
Y989D01*
X2974Y978D01*
X2980Y968D01*
X2988Y960D01*
X2998Y954D01*
X3009Y951D01*
X3021D01*
X3032Y954D01*
X3042Y960D01*
X3050Y968D01*
X3056Y978D01*
X3059Y989D01*
Y1001D01*
X3056Y1012D01*
X3050Y1022D01*
X3042Y1030D01*
X3032Y1036D01*
X3021Y1038D01*
D02*
G37*
G36*
X2473Y752D02*
X2470D01*
X2468Y752D01*
X2434D01*
Y678D01*
X2438D01*
Y608D01*
X2435Y606D01*
X2430Y604D01*
X2371D01*
Y521D01*
X2430D01*
Y549D01*
X2592D01*
Y521D01*
X2651D01*
Y604D01*
X2592D01*
Y576D01*
X2483D01*
Y584D01*
X2481Y592D01*
X2477Y599D01*
X2471Y605D01*
X2466Y608D01*
Y675D01*
X2469Y678D01*
X2473D01*
X2475Y678D01*
X2487D01*
Y715D01*
Y752D01*
X2475D01*
X2473Y752D01*
D02*
G37*
%LPD*%
G36*
X2334Y2593D02*
X2335Y2591D01*
X2341Y2585D01*
X2341Y2585D01*
Y2545D01*
X2342Y2540D01*
X2345Y2535D01*
X2350Y2532D01*
X2354Y2531D01*
X2355Y2531D01*
X2357Y2526D01*
X2357Y2526D01*
Y2512D01*
X2358Y2509D01*
X2360Y2507D01*
Y2506D01*
X2358Y2504D01*
X2357Y2500D01*
Y2487D01*
X2354Y2482D01*
X2323D01*
X2319Y2486D01*
Y2574D01*
X2320Y2575D01*
X2325Y2582D01*
X2326Y2590D01*
Y2595D01*
X2327Y2595D01*
X2334Y2593D01*
D02*
G37*
G36*
X2793Y2412D02*
Y2358D01*
Y2336D01*
X2754D01*
X2749Y2341D01*
Y2390D01*
X2748Y2395D01*
X2745Y2400D01*
X2721Y2424D01*
X2723Y2429D01*
X2777D01*
X2793Y2412D01*
D02*
G37*
G36*
X2798Y1894D02*
X2780D01*
X2775Y1893D01*
X2770Y1890D01*
X2743Y1862D01*
X2734D01*
X2731Y1867D01*
X2740Y1875D01*
X2743Y1880D01*
X2744Y1885D01*
Y1929D01*
X2752Y1937D01*
X2798D01*
Y1894D01*
D02*
G37*
G36*
X2766Y1800D02*
Y1769D01*
X2767Y1764D01*
X2770Y1759D01*
X2775Y1756D01*
X2780Y1755D01*
X2798D01*
Y1712D01*
X2767D01*
X2734Y1746D01*
Y1781D01*
X2733Y1786D01*
X2730Y1791D01*
X2717Y1804D01*
X2719Y1809D01*
X2757D01*
X2766Y1800D01*
D02*
G37*
G36*
X2706Y1776D02*
Y1740D01*
X2707Y1735D01*
X2710Y1730D01*
X2752Y1689D01*
X2756Y1686D01*
X2761Y1685D01*
X2798D01*
Y1665D01*
X2699D01*
X2699Y1665D01*
Y1730D01*
X2699Y1730D01*
X2698Y1735D01*
X2695Y1740D01*
X2695Y1740D01*
X2680Y1754D01*
X2676Y1757D01*
X2671Y1758D01*
X2670Y1759D01*
X2668Y1763D01*
X2668Y1765D01*
Y1778D01*
X2672Y1783D01*
X2698D01*
X2706Y1776D01*
D02*
G37*
G36*
X2593Y1741D02*
Y1739D01*
X2593Y1736D01*
X2595Y1733D01*
X2598Y1731D01*
X2601Y1731D01*
X2631D01*
X2632Y1731D01*
X2665D01*
X2671Y1724D01*
Y1660D01*
X2672Y1655D01*
X2675Y1650D01*
X2677Y1648D01*
X2675Y1644D01*
X2651D01*
X2584Y1711D01*
Y1738D01*
X2588Y1742D01*
X2593Y1741D01*
D02*
G37*
D18*
X3721Y1710D02*
D03*
X3859D02*
D03*
X3525Y1775D02*
D03*
X1738Y1900D02*
D03*
D19*
X3730Y1410D02*
D03*
Y1475D02*
D03*
D20*
X2395Y2545D02*
D03*
Y2519D02*
D03*
Y2494D02*
D03*
Y2468D02*
D03*
Y2442D02*
D03*
Y2417D02*
D03*
Y2391D02*
D03*
Y2366D02*
D03*
X2635Y2545D02*
D03*
Y2519D02*
D03*
Y2494D02*
D03*
Y2468D02*
D03*
Y2442D02*
D03*
Y2417D02*
D03*
Y2391D02*
D03*
Y2366D02*
D03*
X2390Y1925D02*
D03*
Y1899D02*
D03*
Y1874D02*
D03*
Y1848D02*
D03*
Y1823D02*
D03*
Y1797D02*
D03*
Y1771D02*
D03*
Y1746D02*
D03*
X2630Y1925D02*
D03*
Y1899D02*
D03*
Y1874D02*
D03*
Y1848D02*
D03*
Y1823D02*
D03*
Y1797D02*
D03*
Y1771D02*
D03*
Y1746D02*
D03*
D21*
X1588Y2265D02*
D03*
X1662D02*
D03*
D22*
X2600Y1370D02*
D03*
X2420D02*
D03*
D23*
X2510Y1128D02*
D03*
D24*
X2830Y2574D02*
D03*
Y2503D02*
D03*
X2835Y1880D02*
D03*
Y1951D02*
D03*
D25*
X2830Y2395D02*
D03*
Y2322D02*
D03*
X2835Y1771D02*
D03*
Y1699D02*
D03*
D26*
X2570Y715D02*
D03*
X2531D02*
D03*
X2491D02*
D03*
X2452D02*
D03*
D27*
X2401Y562D02*
D03*
X2621D02*
D03*
D44*
X3730Y1330D02*
Y1410D01*
X2860Y1000D02*
Y1560D01*
X2740Y880D02*
X2860Y1000D01*
Y1560D02*
X2904Y1604D01*
X3006D01*
X3427Y2078D02*
X3432Y2084D01*
X1542Y1900D02*
Y2216D01*
X1588Y2262D02*
Y2265D01*
X1542Y2216D02*
X1588Y2262D01*
X3220Y1307D02*
X3332Y1195D01*
X3220Y1307D02*
Y2085D01*
X2313Y1823D02*
X2390D01*
X2285Y1795D02*
X2313Y1823D01*
X2285Y1695D02*
Y1795D01*
X2323Y1628D02*
Y1763D01*
X2332Y1771D02*
X2390D01*
X2323Y1763D02*
X2332Y1771D01*
X2320Y1625D02*
X2323Y1628D01*
X2926Y2016D02*
X2947Y1995D01*
X3015D01*
X2706Y2016D02*
X2926D01*
X2670Y1980D02*
X2706Y2016D01*
X2740Y1995D02*
X2880D01*
X2695Y1950D02*
X2740Y1995D01*
X2880D02*
X2928Y1947D01*
X2661Y1926D02*
X2670Y1935D01*
X2632Y1926D02*
X2661D01*
X2670Y1935D02*
Y1980D01*
X2630Y1925D02*
X2632Y1926D01*
X2928Y1928D02*
X2955Y1900D01*
X2928Y1928D02*
Y1947D01*
X2960Y1895D02*
X3015D01*
X2955Y1900D02*
X2960Y1895D01*
X2686Y1899D02*
X2695Y1908D01*
Y1950D01*
X2630Y1899D02*
X2686D01*
X2630Y1746D02*
X2632Y1745D01*
X2670D01*
X2685Y1730D01*
X2694Y1651D02*
X2936D01*
X2685Y1660D02*
X2694Y1651D01*
X2685Y1660D02*
Y1730D01*
X2960Y1675D02*
Y1775D01*
X2936Y1651D02*
X2960Y1675D01*
X2969Y1784D02*
X3004D01*
X2960Y1775D02*
X2969Y1784D01*
X3004D02*
X3015Y1795D01*
Y1690D02*
Y1695D01*
X2955Y1630D02*
X3015Y1690D01*
X2570Y1705D02*
X2645Y1630D01*
X2955D01*
X2596Y1770D02*
X2629D01*
X2570Y1744D02*
X2596Y1770D01*
X2629D02*
X2630Y1771D01*
X2570Y1705D02*
Y1744D01*
X2492Y1848D02*
X2630D01*
X2458Y1868D02*
X2485Y1841D01*
X2492Y1848D01*
X2464Y1874D02*
X2465Y1875D01*
X2390Y1874D02*
X2464D01*
X2485Y1825D02*
Y1841D01*
X2457Y1797D02*
X2485Y1825D01*
X2390Y1797D02*
X2457D01*
X2465Y1660D02*
Y1735D01*
X2553Y1823D01*
X2630D01*
X2510Y1128D02*
X2553Y1085D01*
X1665Y949D02*
X1734Y880D01*
X2740D01*
X1665Y949D02*
Y1035D01*
X2175Y1885D02*
X2189Y1899D01*
X2390D01*
X2162Y1967D02*
X2205Y1925D01*
X2390D01*
X2175Y1855D02*
Y1885D01*
X2162Y1967D02*
Y2535D01*
X2233Y1839D02*
X2242Y1848D01*
X2233Y1747D02*
Y1839D01*
Y1747D02*
X2235Y1745D01*
X2242Y1848D02*
X2390D01*
X2420Y2600D02*
Y2685D01*
Y2600D02*
X2450Y2570D01*
Y2530D02*
Y2570D01*
X2441Y2521D02*
X2450Y2530D01*
X2396Y2521D02*
X2441D01*
X2395Y2519D02*
X2396Y2521D01*
X2355Y2545D02*
Y2605D01*
X2360Y2610D01*
X2162Y2535D02*
Y2898D01*
X2395Y2545D02*
X2395Y2545D01*
X2355Y2545D02*
X2395D01*
X2130Y2930D02*
X2162Y2898D01*
X1870Y2930D02*
X2130D01*
X1815Y2875D02*
X1870Y2930D01*
X1815Y2034D02*
Y2875D01*
X1685Y2025D02*
X1806D01*
X1815Y2034D01*
X1640Y1980D02*
X1685Y2025D01*
X1640Y1900D02*
Y1980D01*
X2586Y2391D02*
X2635D01*
X2565Y2370D02*
X2586Y2391D01*
X2565Y2290D02*
Y2370D01*
X2515Y2220D02*
X2586D01*
X2685Y2319D01*
Y2356D01*
X2677Y2364D02*
X2685Y2356D01*
X2635Y2366D02*
X2637Y2364D01*
X2677D01*
X2735Y2335D02*
Y2390D01*
Y2335D02*
X2748Y2322D01*
X2708Y2417D02*
X2735Y2390D01*
X2825Y2579D02*
X2830Y2574D01*
X2825Y2579D02*
Y2660D01*
X2491Y2494D02*
X2510Y2475D01*
X2456Y2494D02*
X2491D01*
X2510Y2475D02*
X2517Y2468D01*
X2635D01*
X2465Y2415D02*
Y2485D01*
X2456Y2494D02*
X2465Y2485D01*
X2395Y2494D02*
X2456D01*
X2464Y2416D02*
X2465Y2415D01*
X2396Y2416D02*
X2464D01*
X2395Y2417D02*
X2396Y2416D01*
X2536Y2519D02*
X2635D01*
X2515Y2540D02*
X2536Y2519D01*
X2485Y2633D02*
X2515Y2603D01*
Y2540D02*
Y2603D01*
X2485Y2633D02*
Y2640D01*
X2560Y2597D02*
Y2600D01*
X2613Y2545D02*
X2635D01*
X2560Y2597D02*
X2613Y2545D01*
X2835Y1880D02*
X2835Y1880D01*
X2890D01*
X2748Y1848D02*
X2780Y1880D01*
X2835D01*
X2630Y1848D02*
X2748D01*
X2746Y1951D02*
X2835D01*
X2730Y1935D02*
X2746Y1951D01*
X2730Y1885D02*
Y1935D01*
X2719Y1874D02*
X2730Y1885D01*
X2630Y1874D02*
X2719D01*
X2780Y1769D02*
X2832D01*
X2780D02*
Y1805D01*
X2832Y1769D02*
X2835Y1771D01*
X2763Y1823D02*
X2780Y1805D01*
X2630Y1823D02*
X2763D01*
X2704Y1797D02*
X2720Y1781D01*
Y1740D02*
Y1781D01*
X2630Y1797D02*
X2704D01*
X2720Y1740D02*
X2761Y1699D01*
X2835D01*
X2783Y2442D02*
X2830Y2395D01*
X2635Y2442D02*
X2783D01*
X2635Y2417D02*
X2708D01*
X2748Y2322D02*
X2830D01*
X2635Y2494D02*
X2820D01*
X2830Y2503D01*
X2305Y2480D02*
Y2590D01*
X2310Y2475D02*
X2317Y2468D01*
X2305Y2480D02*
X2310Y2475D01*
X2317Y2468D02*
X2395D01*
X2264Y2442D02*
X2395D01*
X2255Y2451D02*
X2264Y2442D01*
X2255Y2451D02*
Y2515D01*
X2260Y2520D01*
X2234Y2391D02*
X2395D01*
X2225Y2400D02*
X2234Y2391D01*
X2210Y2415D02*
X2225Y2400D01*
X2210Y2415D02*
Y2515D01*
X2452Y580D02*
Y715D01*
X2401Y562D02*
X2455D01*
Y577D01*
X2452Y580D02*
X2455Y577D01*
Y562D02*
X2621D01*
X3006Y1604D02*
X3015Y1595D01*
X1820Y1395D02*
X2015D01*
X1667Y1242D02*
X1820Y1395D01*
X1667Y1170D02*
Y1242D01*
X3142Y872D02*
Y2558D01*
X3015Y2595D02*
X3105D01*
X3142Y2558D01*
X3110Y885D02*
Y2265D01*
X3015Y2295D02*
X3080D01*
X3110Y2265D01*
X2570Y805D02*
X2582Y817D01*
X2570Y715D02*
Y805D01*
X2531Y811D02*
X2560Y840D01*
X2531Y715D02*
Y811D01*
X3088Y817D02*
X3142Y872D01*
X3065Y840D02*
X3110Y885D01*
X2560Y840D02*
X3065D01*
X2582Y817D02*
X3088D01*
D45*
X3730Y1478D02*
X3855Y1603D01*
X3730Y1475D02*
Y1478D01*
X3855Y1603D02*
Y1706D01*
X3859Y1710D01*
X2420Y1414D02*
Y1470D01*
Y1370D02*
Y1414D01*
X3695Y1780D02*
X3707Y1768D01*
X3695Y1780D02*
Y1785D01*
X3707Y1725D02*
X3721Y1710D01*
X3707Y1725D02*
Y1768D01*
X2525Y1550D02*
X2772D01*
X2800Y1115D02*
Y1522D01*
X2772Y1550D02*
X2800Y1522D01*
X2485Y1510D02*
X2525Y1550D01*
X2485Y1471D02*
Y1510D01*
X2420Y1414D02*
X2431Y1425D01*
X2439D01*
X2485Y1471D01*
X3290Y2095D02*
X3320Y2125D01*
X3290Y1920D02*
Y2095D01*
X3328Y1775D02*
Y1882D01*
X3290Y1920D02*
X3328Y1882D01*
X3427Y1775D02*
Y2078D01*
X3320Y2125D02*
Y2390D01*
X1675Y2825D02*
Y2955D01*
X1780Y3060D01*
X2242D01*
X2465Y1570D02*
Y1660D01*
X2420Y1470D02*
Y1525D01*
X2465Y1570D01*
X1880Y995D02*
X2015D01*
X1820Y935D02*
X1880Y995D01*
X2400Y1490D02*
X2420Y1470D01*
X2345Y1490D02*
X2400D01*
X2225Y1370D02*
X2345Y1490D01*
X2225Y1013D02*
Y1370D01*
X2015Y995D02*
X2207D01*
X2225Y1013D01*
X2900Y2413D02*
Y2860D01*
X2600Y1370D02*
X2601Y1371D01*
Y1456D01*
X2605Y1460D01*
Y1465D01*
X2830Y2395D02*
X2846Y2411D01*
X2898D02*
X2900Y2413D01*
X2846Y2411D02*
X2898D01*
X2918Y2885D02*
X3180D01*
X3205Y2860D01*
Y2505D02*
Y2860D01*
Y2505D02*
X3320Y2390D01*
X2440Y2960D02*
X3247D01*
X3265Y2545D02*
X3350Y2460D01*
X3247Y2960D02*
X3265Y2942D01*
Y2545D02*
Y2942D01*
X3423Y2460D02*
X3432Y2451D01*
X3350Y2460D02*
X3423D01*
X2420Y2940D02*
X2440Y2960D01*
X2420Y2685D02*
Y2940D01*
X2305Y2590D02*
Y2935D01*
X2415Y3045D02*
X3232D01*
X2305Y2935D02*
X2415Y3045D01*
X3328Y2693D02*
X3432Y2589D01*
X3328Y2693D02*
Y2950D01*
X3232Y3045D02*
X3328Y2950D01*
X2260Y2520D02*
Y3042D01*
X2210Y2515D02*
Y2987D01*
X1795Y3005D02*
X2192D01*
X2210Y2987D01*
X2242Y3060D02*
X2260Y3042D01*
X1625Y2420D02*
X1630Y2415D01*
X1640Y2425D01*
X1555Y2705D02*
X1675Y2825D01*
X1555Y2463D02*
X1573Y2445D01*
X1601D01*
X1555Y2463D02*
Y2705D01*
X1602Y2444D02*
X1625Y2421D01*
X1601Y2445D02*
X1602Y2444D01*
X1625Y2420D02*
Y2421D01*
X1633Y2425D02*
X1640D01*
X1717Y2563D02*
X1735Y2581D01*
X1633Y2563D02*
X1717D01*
X1735Y2581D02*
Y2945D01*
X1795Y3005D01*
D46*
X2553Y1085D02*
X2690D01*
D47*
X3328Y1775D02*
D03*
X3427D02*
D03*
X1542Y1900D02*
D03*
X1640D02*
D03*
D48*
X3432Y1578D02*
D03*
Y2221D02*
D03*
Y2589D02*
D03*
X1633Y2425D02*
D03*
X1648Y1469D02*
D03*
D49*
X3432Y1440D02*
D03*
Y2084D02*
D03*
Y2451D02*
D03*
X1633Y2563D02*
D03*
X1648Y1607D02*
D03*
D50*
X1765Y1035D02*
D03*
X1665D02*
D03*
X1565D02*
D03*
X1767Y1170D02*
D03*
X1667D02*
D03*
X1567D02*
D03*
D51*
X3532Y1195D02*
D03*
D52*
X3432D02*
D03*
X3332D02*
D03*
D53*
X1230Y1920D02*
D03*
X3800D02*
D03*
D54*
X3015Y2495D02*
D03*
Y2595D02*
D03*
Y2695D02*
D03*
Y2795D02*
D03*
Y2395D02*
D03*
Y2295D02*
D03*
Y2195D02*
D03*
Y2095D02*
D03*
Y1995D02*
D03*
Y1895D02*
D03*
Y1495D02*
D03*
Y1595D02*
D03*
Y1695D02*
D03*
Y1795D02*
D03*
Y1395D02*
D03*
Y1295D02*
D03*
Y1195D02*
D03*
Y1095D02*
D03*
Y995D02*
D03*
X2015Y2495D02*
D03*
Y2595D02*
D03*
Y2695D02*
D03*
Y2795D02*
D03*
Y2395D02*
D03*
Y2295D02*
D03*
Y2195D02*
D03*
Y2095D02*
D03*
Y1995D02*
D03*
Y1895D02*
D03*
Y1495D02*
D03*
Y1595D02*
D03*
Y1695D02*
D03*
Y1795D02*
D03*
Y1395D02*
D03*
Y1295D02*
D03*
Y1195D02*
D03*
Y1095D02*
D03*
Y995D02*
D03*
D55*
X3730Y1330D02*
D03*
X3695Y1785D02*
D03*
X2800Y1115D02*
D03*
X2285Y1695D02*
D03*
X2320Y1625D02*
D03*
X2465Y1875D02*
D03*
X2690Y1085D02*
D03*
X1820Y935D02*
D03*
X2905Y2860D02*
D03*
X2605Y1465D02*
D03*
X2175Y1855D02*
D03*
X2235Y1745D02*
D03*
X2360Y2610D02*
D03*
X2162Y2535D02*
D03*
X2565Y2290D02*
D03*
X2515Y2220D02*
D03*
X2825Y2660D02*
D03*
X2465Y2415D02*
D03*
X2485Y2640D02*
D03*
X2560Y2600D02*
D03*
X2890Y1880D02*
D03*
X3220Y2085D02*
D03*
X2452Y580D02*
D03*
M02*
